<?xml version="1.0" standalone="no"?>
<!DOCTYPE svg PUBLIC "-//W3C//DTD SVG 20010904//EN"
 "http://www.w3.org/TR/2001/REC-SVG-20010904/DTD/svg10.dtd">
<svg version="1.0" xmlns="http://www.w3.org/2000/svg"
 width="941.000000pt" height="770.000000pt" viewBox="0 0 941.000000 770.000000"
 preserveAspectRatio="xMidYMid meet">

<g transform="translate(0.000000,770.000000) scale(0.100000,-0.100000)"
fill="#000000" stroke="none">
<path d="M5439 7233 c-33 -87 -40 -146 -19 -167 14 -14 13 9 -1 37 -9 20 -9
20 4 5 16 -21 31 -24 25 -6 -3 7 2 19 9 27 8 7 12 20 9 28 -4 8 -1 11 5 7 8
-4 9 1 4 15 -4 12 -2 21 4 21 6 0 11 -8 12 -17 0 -11 4 -8 11 10 5 15 7 35 3
45 -8 16 -10 26 -13 65 -4 35 -19 15 -53 -70z"/>
<path d="M5246 7265 c4 -8 10 -12 15 -9 11 6 2 24 -11 24 -5 0 -7 -7 -4 -15z"/>
<path d="M5220 7245 c0 -9 -6 -15 -12 -14 -24 3 -38 -1 -38 -10 0 -5 9 -7 21
-4 12 3 24 0 28 -6 5 -7 8 1 9 18 0 17 -1 31 -4 31 -2 0 -4 -7 -4 -15z"/>
<path d="M5135 7180 c3 -5 8 -10 11 -10 2 0 4 5 4 10 0 6 -5 10 -11 10 -5 0
-7 -4 -4 -10z"/>
<path d="M3540 7090 c-8 -5 -17 -7 -21 -5 -3 3 -22 -12 -41 -33 -43 -45 -86
-75 -112 -79 -11 -2 -33 -14 -50 -26 -17 -13 -58 -38 -91 -56 -33 -19 -73 -44
-90 -57 -16 -13 -41 -32 -54 -41 -14 -10 -57 -49 -97 -86 -64 -61 -72 -73 -78
-115 -4 -32 -13 -51 -27 -60 -14 -9 -18 -17 -11 -25 6 -8 3 -22 -9 -42 -11
-17 -19 -23 -19 -15 -1 8 -9 0 -18 -17 -10 -18 -35 -42 -57 -53 -42 -21 -78
-19 -68 6 6 16 -12 20 -22 4 -3 -5 -14 -10 -24 -10 -10 0 -24 -6 -30 -14 -7
-8 -25 -12 -44 -11 -17 2 -38 3 -44 4 -9 1 -13 21 -13 64 0 78 -14 128 -40
145 -19 12 -20 10 -21 -35 -1 -57 -5 -69 -44 -117 -28 -36 -82 -70 -101 -64
-5 1 -23 -6 -41 -15 -37 -19 -43 -21 -43 -8 0 5 8 12 18 15 10 3 7 4 -8 3 -14
-1 -30 2 -36 6 -7 4 -15 -2 -19 -16 -6 -19 -8 -20 -12 -4 -4 16 -7 17 -21 4
-10 -8 -42 -22 -73 -31 -69 -20 -99 -42 -129 -99 -20 -38 -22 -48 -11 -61 8
-9 22 -16 32 -16 13 0 27 -15 41 -45 23 -47 37 -57 39 -27 0 11 5 7 13 -12
l13 -29 6 43 c6 50 28 76 82 101 87 40 238 8 241 -52 1 -13 5 -33 10 -44 5
-12 -3 -8 -22 13 -30 34 -79 49 -103 33 -12 -8 -12 -12 -2 -25 19 -23 10 -60
-17 -64 -13 -2 -24 3 -28 12 -10 26 -24 7 -24 -33 0 -44 29 -87 68 -102 34
-13 86 5 112 39 15 18 20 21 16 8 -5 -14 -2 -17 11 -12 44 15 -40 -38 -121
-78 -73 -36 -85 -45 -68 -50 12 -4 26 -5 31 -1 6 3 14 -3 20 -12 8 -14 12 -16
22 -6 10 11 15 8 25 -15 l11 -27 0 30 c0 24 17 45 87 112 48 45 93 98 102 118
8 20 19 33 25 29 6 -3 8 -12 5 -20 -3 -8 -3 -14 -1 -14 8 0 24 37 30 68 12 70
48 122 117 173 l38 27 40 -21 c47 -26 63 -63 64 -155 1 -44 6 -66 16 -72 8 -5
11 -10 5 -11 -5 0 -1 -4 10 -8 11 -4 33 -5 50 -1 48 10 93 -6 111 -41 10 -21
11 -29 3 -23 -9 5 -10 2 -5 -12 4 -10 4 -15 0 -11 -4 4 -18 -3 -32 -15 -13
-13 -23 -18 -22 -13 5 23 -1 24 -25 3 -13 -11 -23 -24 -21 -27 2 -3 -8 -15
-22 -25 -21 -16 -24 -17 -19 -4 7 19 -17 43 -34 33 -8 -6 -8 -2 0 13 17 33 13
49 -6 22 -10 -14 -18 -29 -18 -35 0 -5 -4 -12 -10 -15 -5 -3 -19 -15 -32 -27
-12 -13 -26 -23 -30 -23 -10 0 -60 -99 -92 -183 -6 -15 -16 -27 -22 -27 -6 0
-8 -7 -5 -16 3 -8 2 -12 -4 -9 -6 3 -10 0 -10 -8 0 -19 -68 -65 -115 -78 -35
-10 -36 -11 -20 -29 28 -31 104 -55 174 -55 l64 0 -39 -12 c-22 -6 -48 -12
-60 -12 -11 -1 -29 -7 -40 -15 -18 -14 -18 -15 11 -21 76 -17 102 -26 130 -43
29 -18 31 -18 64 1 29 18 41 19 92 11 52 -9 61 -8 75 7 35 38 181 65 212 39 6
-6 10 -7 7 -3 -3 3 2 15 11 25 14 15 20 16 32 5 13 -9 14 -9 8 1 -4 6 -4 12 1
13 4 0 16 2 26 4 9 2 15 -1 11 -6 -7 -12 3 -11 27 2 11 5 17 14 14 19 -3 5 4
7 15 5 11 -2 20 0 20 6 0 5 7 9 15 9 8 0 19 -17 25 -42 16 -63 21 -68 16 -20
-3 34 -1 42 9 38 9 -3 12 0 8 10 -4 10 0 12 11 8 20 -8 21 0 1 19 -12 13 -11
18 10 41 40 43 70 35 104 -29 29 -55 26 -96 -10 -160 -40 -71 -54 -78 -106
-55 -45 20 -61 16 -39 -9 8 -9 17 -30 20 -47 6 -29 3 -34 -29 -54 -19 -12 -48
-25 -63 -29 -23 -6 -29 -4 -39 18 l-11 26 -1 -32 c-1 -31 -2 -31 -73 -43 -85
-14 -195 -48 -160 -49 44 -2 17 -25 -44 -39 -32 -7 -88 -21 -124 -30 -36 -9
-71 -16 -78 -15 -7 0 -11 -2 -8 -5 3 -3 -3 -11 -14 -19 -11 -8 -20 -20 -20
-27 0 -31 72 -29 268 5 120 21 202 15 202 -16 0 -13 28 -34 35 -27 5 4 5 2 2
-5 -4 -6 0 -19 9 -27 18 -19 12 -46 -11 -46 -8 0 -15 -4 -15 -9 0 -4 -26 -16
-57 -25 -139 -41 -159 -48 -180 -62 -12 -8 -28 -14 -35 -14 -7 0 -44 -10 -82
-22 -72 -23 -110 -58 -88 -80 7 -7 7 -16 1 -27 -36 -64 -214 -511 -240 -601
-18 -65 -28 -70 -17 -10 5 29 36 126 69 217 33 90 66 194 74 231 7 37 25 99
39 138 14 39 26 78 26 85 0 8 -20 44 -43 81 l-43 67 -47 -52 c-25 -29 -60 -72
-78 -97 -48 -67 -58 -72 -96 -50 -30 18 -31 18 -36 -1 -6 -21 -36 -37 -46 -23
-3 5 -11 10 -16 11 -6 1 -22 4 -36 8 -20 5 -27 2 -37 -19 -6 -14 -25 -32 -43
-41 -36 -19 -117 -45 -139 -44 -8 0 19 11 61 24 92 30 119 56 134 133 15 73
13 194 -3 200 -7 2 -10 8 -7 12 3 5 -11 25 -31 44 -34 33 -36 38 -25 63 7 16
28 46 46 67 l35 39 60 -7 c33 -3 86 -9 118 -12 50 -6 60 -4 65 10 9 24 -15 77
-76 170 -40 62 -52 89 -53 122 -1 28 2 43 10 41 6 -1 10 8 8 22 -3 16 0 21 8
16 9 -6 9 -1 0 16 -17 33 -51 69 -66 69 -6 0 -17 6 -23 14 -17 20 20 41 38 23
10 -9 12 -9 9 3 -2 8 2 14 8 13 9 -2 9 8 2 35 -6 20 -10 52 -10 71 1 19 -8 47
-19 62 -10 15 -19 32 -19 39 0 6 -4 8 -10 5 -5 -3 -17 3 -27 15 -17 19 -18 19
-28 1 -12 -21 -110 -103 -149 -123 l-27 -14 32 -32 c20 -20 39 -30 48 -27 9 3
12 3 8 -1 -4 -4 7 -16 24 -26 16 -10 28 -22 25 -27 -3 -5 1 -14 10 -22 8 -7
41 -49 73 -93 59 -83 90 -133 51 -83 -23 28 -43 37 -34 13 4 -9 -2 -13 -20
-11 -18 2 -27 -3 -31 -16 -4 -11 -12 -18 -18 -16 -7 2 -17 -2 -22 -10 -6 -8
-20 -15 -33 -16 -12 0 -22 -6 -22 -11 0 -5 -11 1 -25 14 -14 13 -25 29 -25 37
0 7 -4 13 -10 13 -5 0 -10 -4 -10 -8 0 -5 -9 -18 -20 -30 -12 -12 -17 -22 -13
-22 4 0 -3 -7 -15 -16 -12 -8 -22 -20 -22 -25 0 -5 -9 -19 -20 -31 -10 -12
-17 -25 -14 -30 3 -4 0 -8 -5 -8 -6 0 -11 -7 -11 -15 0 -8 -5 -15 -11 -15 -5
0 -8 -4 -4 -9 3 -5 1 -12 -5 -16 -6 -4 -24 22 -41 60 -31 65 -68 103 -89 90
-6 -3 -8 -11 -4 -16 3 -6 3 -32 -1 -58 -5 -35 -11 -48 -22 -47 -11 1 -16 -10
-18 -38 -1 -23 -9 -42 -19 -48 -9 -5 -16 -16 -16 -24 0 -8 -8 -18 -17 -21 -30
-12 -113 -87 -113 -103 0 -5 -5 -10 -10 -10 -17 0 -71 93 -66 113 2 9 1 15 -4
12 -8 -5 -46 85 -41 100 1 6 -1 7 -5 3 -4 -4 -14 -2 -22 4 -11 10 -17 9 -27
-6 -17 -23 -10 -48 49 -164 38 -76 44 -94 31 -98 -8 -4 -15 -12 -15 -19 0 -7
-3 -15 -8 -17 -4 -1 -22 -22 -41 -46 -55 -70 -62 -70 -118 -4 -26 32 -56 69
-65 82 -9 14 -17 20 -17 14 -1 -7 15 -36 36 -65 20 -29 32 -54 27 -56 -6 -2
-8 -18 -6 -36 2 -24 -6 -46 -32 -87 -20 -30 -36 -58 -36 -63 0 -4 -9 -3 -21 3
-24 13 -36 7 -17 -9 67 -54 86 -69 107 -82 25 -15 39 -83 20 -94 -5 -4 -9 -15
-9 -26 0 -10 -4 -19 -8 -19 -9 0 -32 -101 -32 -138 0 -12 -4 -22 -10 -22 -6 0
-6 -9 0 -25 6 -15 6 -25 0 -25 -5 0 -7 -10 -5 -22 3 -12 -1 -26 -8 -31 -8 -6
-6 -7 6 -3 9 3 17 1 17 -4 0 -5 8 -7 18 -3 9 3 14 2 9 -2 -4 -5 -17 -9 -30
-11 -12 -1 -24 -3 -27 -3 -3 -1 11 -15 30 -31 19 -16 29 -30 22 -30 -7 0 -10
-5 -7 -10 4 -7 12 -7 25 0 13 7 21 7 26 -2 4 -6 3 -8 -4 -4 -6 3 -13 -3 -17
-14 -7 -21 -25 -28 -25 -9 0 5 -5 7 -11 3 -6 -3 -15 0 -20 7 -8 12 -10 12 -18
0 -8 -12 -12 -12 -25 -2 -9 8 -16 9 -16 4 0 -6 -12 -9 -28 -7 -146 16 -148 16
-128 0 10 -9 22 -13 26 -11 4 3 57 -5 116 -16 60 -11 117 -21 127 -20 9 0 15
-4 12 -9 -3 -5 28 -8 70 -7 41 1 75 5 75 9 0 8 27 4 36 -5 4 -3 16 -2 27 4 10
6 64 13 119 15 96 4 145 9 179 19 10 4 14 15 13 38 -2 17 -4 57 -5 87 -1 30
-6 60 -10 65 -10 14 -7 55 4 55 4 0 5 27 1 61 l-7 61 24 -12 c61 -32 173 -99
264 -159 137 -90 147 -94 263 -116 18 -4 32 -13 32 -21 0 -8 3 -14 8 -14 4 0
7 -47 7 -103 0 -66 4 -109 12 -118 6 -8 10 -27 9 -42 -2 -15 3 -53 10 -85 8
-31 14 -77 15 -102 1 -40 10 -106 39 -280 5 -30 16 -107 25 -170 37 -277 48
-341 80 -445 19 -64 29 -83 40 -79 12 5 14 -2 9 -38 -5 -34 -1 -57 16 -97 30
-69 120 -192 120 -163 0 11 -6 23 -12 25 -8 3 -9 6 -2 6 16 1 2 58 -41 171
-21 52 -39 104 -40 115 -2 11 -10 64 -19 118 -10 66 -15 176 -16 345 -2 276
-11 402 -40 512 -13 51 -16 76 -8 81 7 4 5 10 -6 16 -9 5 -23 39 -33 77 -14
58 -15 79 -4 144 13 85 82 298 173 528 l59 151 52 -15 c45 -13 65 -13 147 -2
185 25 175 26 190 -9 7 -17 19 -31 26 -31 8 0 19 -9 26 -20 7 -11 19 -20 27
-20 7 0 24 -12 37 -26 14 -15 29 -22 37 -18 6 4 9 4 5 0 -6 -7 4 -22 37 -60 6
-6 16 -22 23 -36 29 -58 88 -130 239 -292 41 -45 41 -45 36 -109 -2 -35 -11
-71 -18 -79 -8 -9 -15 -33 -16 -55 -1 -23 -11 -49 -22 -62 -10 -12 -16 -26
-13 -31 3 -6 -1 -39 -9 -74 -19 -78 -53 -187 -54 -171 -1 13 -66 37 -93 35
-10 0 -18 4 -18 9 0 5 -16 8 -36 6 -27 -3 -34 -1 -30 10 4 9 2 11 -7 6 -6 -4
-18 -8 -25 -8 -8 0 -19 -13 -26 -30 -10 -24 -10 -35 0 -54 7 -14 11 -28 8 -33
-3 -4 2 -5 10 -2 9 3 16 1 16 -6 0 -14 87 -99 95 -92 3 3 5 -2 5 -12 0 -13 4
-15 19 -7 13 8 23 6 37 -5 11 -9 14 -13 9 -10 -6 2 -11 -4 -11 -14 0 -30 20
-18 32 20 11 31 12 21 13 -79 1 -63 -2 -112 -5 -108 -3 3 -6 29 -7 56 0 34 -4
51 -13 51 -16 0 -28 -36 -18 -52 6 -9 3 -9 -9 1 -15 12 -17 11 -17 -12 0 -14
-5 -29 -10 -32 -6 -4 -8 -10 -5 -15 3 -5 -3 -13 -12 -19 -10 -6 -15 -11 -10
-11 14 0 -23 -60 -38 -60 -8 0 -15 -5 -15 -11 0 -6 -6 -7 -12 -2 -7 4 -5 -5 5
-20 9 -15 13 -27 8 -27 -5 0 -11 6 -14 13 -7 19 -36 -23 -38 -55 -1 -27 -3
-38 -9 -55 -1 -5 -2 -11 -1 -15 0 -5 -4 -8 -10 -8 -5 0 -8 -4 -4 -9 3 -5 1
-12 -5 -16 -17 -10 -11 -25 7 -18 13 5 15 2 10 -11 -4 -10 -7 -20 -7 -22 0 -3
-6 -2 -12 2 -7 4 -10 4 -6 -1 4 -4 2 -17 -4 -29 -6 -11 -13 -30 -14 -41 -8
-64 -13 -84 -27 -117 -8 -20 -12 -40 -9 -44 4 -4 2 -4 -4 -1 -15 9 -38 -19
-28 -34 4 -8 3 -9 -4 -5 -7 4 -12 3 -12 -3 0 -5 -9 -8 -20 -6 -11 2 -18 0 -15
-5 10 -16 -20 -17 -45 -1 -14 10 -21 11 -17 4 5 -9 2 -13 -8 -13 -9 0 -14 4
-10 9 3 6 -5 8 -18 5 -15 -2 -38 6 -61 21 -63 42 -113 26 -89 -28 13 -28 59
-33 85 -10 18 16 20 15 52 -18 35 -35 52 -93 36 -119 -10 -17 -100 -23 -117
-8 -7 6 -13 7 -13 4 0 -4 -9 -2 -20 4 -28 15 -130 19 -130 5 0 -26 89 -93 103
-78 4 3 12 1 20 -5 7 -6 25 -13 41 -16 15 -3 33 -10 40 -15 7 -6 15 -9 18 -6
8 8 112 -26 131 -43 10 -9 17 -11 17 -4 0 7 5 12 12 12 9 0 9 -3 0 -12 -18
-18 -15 -33 4 -17 31 26 110 19 99 -9 -5 -14 -4 -14 12 0 12 9 27 13 43 8 24
-6 24 -6 5 -17 -11 -6 -17 -15 -13 -18 4 -4 13 -3 20 1 26 17 39 13 32 -9 -6
-21 -5 -21 21 3 l28 25 -18 -27 c-17 -27 -45 -38 -45 -18 0 17 -42 11 -56 -7
-12 -16 -12 -15 -7 7 5 21 3 23 -8 13 -7 -7 -19 -13 -27 -13 -12 0 -12 3 -1
18 11 14 10 13 -9 -2 -20 -17 -22 -18 -22 -2 0 9 -4 15 -9 11 -5 -3 -12 -1
-16 5 -3 5 0 10 8 10 8 0 17 7 20 15 5 12 0 12 -29 -2 -23 -12 -30 -19 -22
-25 7 -4 9 -8 3 -8 -16 0 -40 18 -40 31 0 6 -12 13 -27 15 -16 1 -28 -2 -28
-7 0 -5 -5 -9 -11 -9 -6 0 -8 7 -5 17 6 16 6 16 -12 0 -24 -22 -34 -21 -49 2
-8 13 -19 17 -37 14 -17 -4 -28 0 -31 9 -4 10 -16 14 -37 12 -30 -4 -31 -4
-13 16 10 11 13 20 7 20 -7 0 -12 -4 -12 -10 0 -5 -4 -10 -10 -10 -5 0 -10 8
-10 18 -1 16 -1 16 -11 -1 -7 -11 -17 -16 -29 -12 -27 9 -35 -13 -13 -37 10
-11 17 -30 15 -42 -2 -17 -1 -19 8 -6 10 13 11 13 7 0 -2 -8 -1 -22 4 -31 4
-8 3 -22 -3 -30 -8 -11 -8 -9 -3 6 5 16 4 18 -7 7 -10 -10 -8 -17 10 -35 16
-15 21 -17 17 -6 -4 10 -2 20 4 24 7 3 8 0 5 -9 -3 -9 8 -29 30 -51 45 -45 46
-53 0 -26 -40 24 -58 27 -51 8 3 -8 -1 -14 -8 -14 -11 0 -11 5 -3 20 7 15 7
22 -3 28 -20 12 -23 11 -52 -11 -14 -11 -30 -20 -35 -20 -6 0 -13 -4 -16 -9
-3 -5 6 -8 19 -8 14 0 25 3 25 8 0 5 6 9 14 9 8 0 16 6 19 13 2 6 8 8 13 4 5
-4 4 -11 -1 -15 -17 -12 -15 -44 2 -38 11 5 13 2 9 -10 -3 -8 -6 -19 -6 -22 0
-4 -4 -1 -9 7 -10 15 -31 7 -31 -13 0 -8 10 -12 28 -10 26 3 26 2 7 -13 -18
-14 -18 -15 -1 -9 14 5 17 2 12 -10 -3 -8 -6 -18 -6 -20 0 -2 -7 -4 -16 -4 -8
0 -12 -5 -9 -11 5 -7 15 -3 29 10 12 12 29 21 37 21 9 -1 7 -5 -6 -12 -11 -7
-26 -17 -33 -24 -7 -7 -18 -11 -25 -8 -7 2 -18 -5 -25 -16 -7 -11 -8 -20 -3
-20 6 0 13 5 16 10 3 6 16 10 28 9 15 0 17 -2 7 -6 -17 -7 -45 -42 -45 -58 -1
-5 -7 -9 -14 -7 -7 1 -10 -2 -7 -7 3 -5 -1 -12 -9 -15 -9 -3 -18 1 -21 9 -5
11 -11 12 -25 4 -15 -8 -19 -6 -19 6 0 9 -5 13 -10 10 -8 -5 -7 -11 0 -20 15
-18 3 -55 -18 -55 -13 0 -11 -4 6 -21 12 -11 20 -24 17 -30 -4 -5 0 -9 7 -9 8
-1 6 -6 -6 -15 -29 -22 -37 -18 -26 11 7 16 7 23 0 19 -6 -3 -10 -1 -10 5 0 6
-4 9 -9 6 -5 -3 -11 1 -15 9 -3 9 -12 12 -22 8 -13 -5 -15 -3 -9 7 6 9 4 11
-4 5 -7 -4 -11 -15 -8 -25 3 -14 0 -16 -17 -12 -15 4 -7 -10 32 -54 78 -87 79
-88 35 -126 -20 -18 -43 -41 -52 -50 -8 -10 -25 -18 -36 -18 -11 0 -33 -9 -50
-20 -16 -12 -44 -28 -62 -36 -18 -9 -43 -26 -57 -39 l-25 -23 -48 22 c-96 46
-309 116 -402 131 -63 11 -112 47 -181 135 -33 43 -35 49 -34 120 2 90 5 110
16 110 4 0 7 3 7 8 -3 17 2 29 19 48 37 42 80 101 106 147 23 38 26 50 16 62
-22 27 -47 16 -107 -46 -77 -80 -203 -282 -203 -326 0 -8 -5 -11 -10 -8 -7 4
-6 13 1 27 6 11 9 36 7 54 -2 19 -1 34 3 34 4 0 4 13 -1 29 -4 15 -4 34 0 42
5 7 7 16 4 20 -2 4 3 12 11 19 7 6 11 19 8 27 -4 11 -2 14 5 9 8 -5 10 -1 5
10 -5 13 -3 15 7 9 9 -5 11 -4 6 4 -4 6 -2 20 5 29 7 9 -3 2 -22 -16 -19 -18
-39 -29 -44 -25 -4 5 -5 3 -2 -3 4 -7 0 -15 -9 -18 -8 -3 -12 -10 -9 -16 3 -5
2 -10 -3 -10 -20 0 -52 -98 -52 -160 0 -55 7 -96 40 -230 31 -129 71 -214 158
-338 97 -139 141 -214 252 -429 40 -79 96 -172 124 -208 28 -36 65 -84 81
-107 38 -52 55 -63 88 -54 31 7 99 64 92 76 -3 5 0 14 7 20 19 16 88 60 94 60
7 0 143 108 181 144 37 35 40 53 18 96 -24 47 -47 54 -88 25 l-36 -24 10 27
c6 15 13 29 17 32 4 3 20 23 36 45 37 50 134 145 248 241 l86 74 89 4 c85 3
173 27 173 47 0 5 3 8 8 7 13 -4 52 13 52 23 0 5 7 9 15 9 8 0 29 13 47 30 17
16 37 30 44 30 7 0 18 9 24 21 7 11 14 18 17 15 3 -3 14 6 25 19 11 14 24 22
30 19 6 -4 8 -3 5 3 -4 5 2 19 12 29 34 38 81 107 76 114 -16 26 100 7 253
-42 24 -7 37 -7 45 1 19 19 37 12 37 -15 0 -14 4 -23 9 -20 8 5 108 -17 141
-31 8 -3 21 -5 29 -4 7 1 10 -2 7 -8 -4 -5 3 -12 14 -16 24 -8 195 -119 204
-133 3 -6 -12 -25 -34 -42 -62 -49 -66 -64 -35 -112 26 -38 29 -40 67 -35 22
3 69 19 103 36 71 35 83 37 91 16 4 -8 12 -15 20 -15 8 0 14 -4 14 -8 0 -20
348 -228 412 -246 49 -14 94 -13 157 4 78 21 181 96 181 132 0 10 11 24 25 30
14 6 25 15 25 20 0 5 5 6 10 3 6 -3 10 1 10 9 0 9 5 15 10 13 6 -1 18 12 28
28 9 17 20 32 25 33 4 2 7 10 7 18 0 8 3 13 8 12 17 -3 62 23 73 43 6 13 20
32 30 43 21 22 20 19 24 63 2 22 -2 33 -11 33 -20 0 -27 19 -12 37 7 9 8 14 2
10 -7 -4 -17 0 -23 7 -9 11 -9 16 0 22 8 5 9 3 4 -6 -5 -8 -4 -11 2 -7 13 8
14 58 1 75 -6 6 -7 12 -3 12 4 0 3 6 -3 13 -8 9 -16 51 -21 107 -1 3 -9 6 -19
6 -16 0 -19 -8 -18 -51 1 -60 -21 -117 -36 -91 -11 19 -1 59 12 51 5 -3 5 8
-1 24 -8 21 -15 28 -27 24 -10 -3 -13 -1 -7 4 12 9 14 103 3 103 -5 0 -8 -7
-8 -15 0 -8 -7 -15 -16 -15 -14 0 -15 7 -10 39 10 64 -11 91 -40 54 -13 -17
-14 -17 -8 0 5 13 2 16 -10 11 -11 -4 -16 -2 -14 7 2 8 -7 15 -19 17 -22 3
-33 22 -13 22 5 0 7 7 3 16 -4 11 -8 12 -13 4 -5 -9 -9 -9 -14 -1 -11 16 4 33
22 26 14 -5 14 -3 -1 13 -9 10 -17 24 -17 31 0 20 -24 7 -37 -20 -10 -19 -13
-20 -13 -6 0 11 -4 15 -12 11 -7 -4 -8 -3 -4 5 4 6 12 9 17 6 15 -10 10 11 -6
25 -18 15 -36 5 -29 -18 5 -13 4 -14 -4 -3 -6 8 -6 25 -2 42 6 20 5 29 -3 31
-7 0 -16 2 -22 3 -5 2 -14 3 -18 4 -4 0 -2 11 5 24 14 26 19 43 21 79 1 14 5
24 9 21 5 -2 8 3 8 11 0 9 8 16 17 16 19 0 10 13 -12 16 -8 1 -13 -3 -12 -9 1
-7 -6 -11 -15 -11 -10 1 -15 -3 -12 -10 3 -6 -2 -2 -10 8 -15 19 -16 19 -17
-10 0 -16 -3 -23 -6 -16 -2 6 -9 9 -14 6 -6 -3 -5 -12 3 -22 12 -13 10 -14 -9
-4 -29 16 -29 16 -29 -15 1 -17 -5 -27 -16 -29 -14 -2 -16 1 -8 16 13 24 13
40 0 20 -8 -12 -10 -12 -16 3 -3 9 -1 24 6 32 10 12 7 15 -14 21 -14 3 -26 12
-26 19 0 21 -19 28 -38 13 -15 -11 -16 -11 -6 2 6 8 11 28 12 43 2 23 -1 25
-12 15 -7 -7 -13 -19 -12 -27 1 -7 -5 -16 -13 -19 -8 -2 -11 0 -8 5 4 6 3 23
-2 40 -9 30 8 70 24 55 4 -4 2 3 -4 16 -7 12 -9 26 -6 31 3 5 -3 7 -13 4 -27
-7 -22 38 6 50 26 12 37 38 20 49 -9 5 -5 8 12 8 19 0 21 3 11 9 -8 5 -19 7
-26 5 -7 -3 -11 7 -11 30 0 19 4 32 7 30 25 -15 46 24 24 43 -4 4 -5 1 0 -7 6
-12 5 -13 -5 -3 -12 11 -11 15 5 27 20 15 35 12 35 -5 0 -6 -4 -8 -9 -5 -13 9
-1 -31 13 -43 9 -7 17 -1 31 21 10 17 13 28 6 24 -6 -4 -11 -1 -11 8 0 9 6 13
14 10 13 -5 25 12 33 46 1 8 -2 42 -8 75 -10 52 -9 65 5 92 9 18 16 45 16 62
0 16 5 33 10 36 6 3 10 18 11 33 l1 27 9 -26 c11 -28 155 -129 189 -132 11 -1
20 -5 20 -9 0 -4 7 -5 15 -2 8 4 12 11 8 17 -3 6 -1 7 5 3 6 -3 15 1 20 10 7
13 13 14 28 6 18 -11 18 -11 -2 -12 -11 0 -29 -9 -39 -20 -18 -20 -18 -20 31
-13 27 3 51 10 52 15 16 40 170 -50 157 -92 -3 -10 0 -29 6 -44 9 -20 15 -23
25 -15 8 6 11 16 7 22 -4 7 0 8 13 2 10 -4 68 -10 128 -13 91 -4 108 -2 101 9
-6 11 -5 12 6 2 20 -19 34 -16 18 4 -10 11 -10 14 -1 9 6 -4 12 -3 12 2 0 5 7
9 15 9 10 0 14 -6 10 -15 -5 -13 -3 -13 11 -2 10 9 18 10 22 4 4 -6 24 -20 45
-33 l38 -23 65 33 c52 26 66 38 71 61 3 15 9 25 13 23 12 -8 41 6 34 16 -3 5
2 6 11 3 8 -4 21 -1 29 5 7 6 17 7 21 3 5 -4 5 -2 2 5 -4 6 -2 13 4 15 9 3 9
9 1 25 -10 17 -8 23 7 34 12 9 21 32 25 64 5 45 4 48 -9 31 -20 -26 -28 -15
-15 20 13 33 46 71 75 86 17 9 16 6 -5 -18 -19 -21 -20 -24 -4 -11 12 10 34
20 49 23 16 3 36 9 46 14 49 27 130 -1 188 -63 23 -26 46 -26 66 -2 6 7 28 21
50 33 22 11 69 46 104 78 55 50 61 59 47 69 -9 7 -16 16 -16 21 0 4 5 3 12 -4
7 -7 19 -12 28 -12 12 1 11 4 -5 17 -20 15 -20 15 3 10 24 -6 28 3 10 21 -7 7
-9 12 -6 12 4 0 14 -7 22 -16 15 -14 16 -14 16 0 0 9 -3 16 -7 16 -8 1 -47 50
-40 50 2 0 16 -11 32 -26 35 -32 46 -23 14 13 l-24 27 28 -17 c15 -10 27 -13
27 -8 0 5 -4 13 -10 16 -5 3 -10 11 -10 17 0 6 7 5 17 -3 15 -13 15 -12 5 8
-15 27 -15 36 -2 28 16 -10 12 12 -5 29 -18 18 -20 30 -2 20 10 -6 10 -4 0 7
-20 21 -15 34 6 15 18 -16 20 -16 40 12 12 17 21 37 21 45 0 15 -106 117 -121
117 -17 0 -20 -24 -8 -73 7 -29 19 -57 27 -64 18 -15 8 -88 -10 -77 -8 5 -9 1
-4 -11 5 -14 4 -15 -7 -7 -18 15 -29 5 -61 -60 -40 -84 -94 -116 -148 -87 -11
6 -18 7 -15 2 3 -4 -18 -9 -46 -10 -41 -1 -58 3 -84 23 -38 29 -93 137 -96
187 -2 42 -7 45 -25 16 -9 -14 -21 -19 -40 -17 -26 3 -27 5 -25 58 l2 55 -15
-34 c-11 -27 -17 -31 -28 -22 -8 7 -23 11 -33 9 -9 -2 -18 2 -18 9 0 6 -3 15
-7 19 -20 19 -7 32 22 24 36 -10 37 -8 8 27 -70 86 -112 110 -148 88 -5 -3
-20 1 -33 10 -22 14 -25 14 -39 -2 -9 -10 -23 -35 -33 -55 -20 -44 -36 -48
-59 -13 -20 30 -20 71 -1 109 20 38 19 39 -10 10 -15 -15 -22 -30 -18 -37 4
-7 -5 -4 -19 5 -15 10 -34 15 -44 11 -14 -5 -16 -3 -11 11 5 13 1 19 -13 23
-31 8 -25 17 33 45 70 34 157 101 182 138 11 16 23 30 26 30 14 0 -10 -72 -35
-105 -14 -18 -26 -38 -26 -44 0 -5 -8 -15 -17 -21 -17 -11 -17 -11 0 -6 10 3
25 6 32 6 28 0 56 66 58 140 2 61 4 70 21 70 10 0 33 -15 52 -34 22 -22 36
-30 43 -23 17 17 25 -41 11 -71 -8 -15 -12 -33 -11 -41 1 -7 -2 -10 -8 -7 -5
4 -15 -2 -20 -13 -9 -17 -6 -19 33 -25 25 -4 62 -20 84 -36 22 -16 65 -43 96
-60 31 -18 56 -35 56 -39 0 -4 8 -7 18 -8 9 -1 38 -5 64 -9 l46 -6 38 56 c40
61 65 70 114 40 l25 -15 -25 5 c-14 2 -36 7 -50 11 -20 5 -19 3 7 -12 18 -10
47 -32 65 -49 47 -44 52 -45 87 -28 17 8 35 13 41 9 5 -3 10 1 10 9 0 9 5 16
10 16 6 0 10 -5 10 -11 0 -5 5 -7 10 -4 6 3 10 1 10 -6 0 -8 4 -8 15 1 12 10
15 10 15 -1 1 -9 9 -4 22 11 13 15 19 18 15 8 -4 -12 -2 -15 10 -11 8 3 19 0
25 -8 8 -11 9 -10 4 3 -3 10 -1 20 4 23 6 4 10 -2 11 -12 1 -27 19 37 21 75 1
32 12 42 21 20 4 -9 6 -8 6 3 1 8 -5 21 -11 28 -11 10 -9 11 6 5 15 -6 18 -4
13 9 -7 19 9 33 17 15 3 -7 3 0 1 15 -2 18 1 30 11 34 8 3 14 16 14 29 0 14
10 30 26 40 26 17 27 33 9 77 -6 14 -4 16 11 10 16 -6 17 -4 7 8 -13 16 -12
56 1 77 4 7 4 17 1 22 -3 6 1 13 10 16 13 5 15 15 11 43 -6 35 -6 35 8 11 8
-14 12 -28 10 -32 -3 -5 -1 -8 5 -8 6 0 10 18 8 40 -1 22 -5 40 -9 40 -14 0
-8 31 7 36 8 4 15 10 15 15 0 10 -29 7 -47 -4 -9 -6 -12 -2 -10 13 1 17 -7 25
-38 37 -123 48 -172 152 -134 286 10 36 8 39 -32 82 -25 27 -49 43 -57 40 -8
-3 -12 0 -10 7 6 17 -39 61 -57 55 -8 -4 -14 -1 -12 6 1 7 -6 11 -17 9 -12 -2
-16 1 -10 9 5 9 2 10 -10 6 -10 -4 -20 -7 -22 -7 -3 0 -2 -4 1 -10 3 -6 -1 -7
-9 -4 -9 3 -16 14 -16 23 0 9 -10 22 -22 30 -22 13 -23 13 -5 -6 9 -11 14 -23
11 -26 -4 -4 -1 -15 7 -24 13 -17 13 -17 -5 -3 -17 14 -18 13 -13 -5 4 -11 2
-27 -4 -35 -9 -13 -10 -12 -5 2 3 10 1 20 -4 23 -5 3 -7 12 -3 20 3 8 0 15 -6
15 -6 0 -11 -5 -11 -11 0 -5 -4 -8 -10 -4 -5 3 -7 12 -4 20 4 8 -1 18 -10 21
-9 3 -16 14 -16 24 0 10 -7 23 -15 30 -9 7 -13 15 -10 18 3 3 -1 12 -8 20 -10
13 -9 14 3 10 8 -2 15 -13 15 -22 0 -10 8 -22 18 -27 9 -6 15 -14 12 -19 -3
-5 -1 -11 4 -14 19 -12 19 24 -1 38 -11 8 -17 19 -14 25 4 5 2 12 -4 16 -7 4
-7 12 0 25 8 15 6 21 -10 30 -11 6 -18 15 -15 19 2 5 -3 15 -13 22 -14 11 -15
11 -5 -1 8 -9 9 -19 2 -32 -5 -10 -7 -23 -4 -28 3 -5 0 -12 -6 -16 -7 -4 -9
-3 -5 4 3 6 2 13 -4 17 -7 4 -7 12 0 25 7 13 7 21 0 25 -7 4 -6 14 1 28 l11
22 -21 -22 c-12 -13 -27 -23 -34 -23 -7 0 -8 3 -2 8 17 12 15 29 -3 44 -15 11
-16 11 -5 -3 15 -18 8 -29 -19 -29 -11 0 -16 -4 -13 -10 3 -6 -1 -7 -9 -4 -11
4 -16 0 -16 -11 0 -15 -2 -15 -16 -4 -12 10 -17 10 -23 0 -6 -9 -13 -7 -27 6
-11 10 -15 15 -10 11 16 -13 23 -9 29 12 4 17 2 20 -14 15 -11 -4 -27 -1 -35
6 -13 10 -17 10 -24 0 -6 -11 -12 -11 -31 3 -13 9 -19 16 -13 16 5 0 15 -5 22
-12 9 -9 12 -8 12 5 0 21 4 21 37 0 20 -13 28 -14 31 -5 2 7 8 10 13 6 5 -3 9
0 9 6 0 6 -10 8 -24 4 -21 -5 -23 -3 -20 25 2 17 -1 31 -7 31 -6 0 -7 -4 -4
-10 3 -5 1 -10 -6 -10 -8 0 -8 -4 1 -15 7 -8 8 -15 2 -15 -17 0 -31 25 -22 40
5 9 5 19 -2 27 -6 7 -6 13 -1 13 5 0 9 9 10 20 1 11 -3 20 -8 20 -6 0 -8 -4
-5 -8 2 -4 1 -14 -3 -21 -7 -10 -13 -11 -31 -1 -18 10 -21 9 -15 -1 6 -9 2
-11 -12 -7 -13 3 -24 -1 -32 -13 -6 -11 -17 -19 -24 -19 -9 0 -9 2 0 8 21 14
19 46 -5 57 -13 6 -20 16 -17 24 3 9 0 11 -10 7 -8 -3 -15 -1 -15 4 0 17 15
18 40 4 14 -7 19 -13 12 -14 -7 0 -10 -5 -6 -11 5 -8 9 -8 14 1 6 10 17 7 45
-10 20 -12 38 -20 40 -18 4 4 -118 78 -129 78 -2 0 -11 -7 -20 -15 -10 -10
-21 -12 -37 -7 -16 6 -19 11 -10 17 8 4 16 2 21 -5 5 -8 9 -7 14 6 8 20 -11
45 -22 29 -4 -6 -23 -10 -42 -11 -19 -1 -29 1 -22 3 6 3 12 13 12 23 0 21 -27
35 -33 17 -3 -9 -8 -8 -21 2 -14 12 -19 11 -31 -5 -15 -18 -15 -18 -8 1 11 35
15 37 34 19 17 -16 19 -16 19 -1 0 21 4 21 35 1 14 -9 23 -20 20 -24 -3 -5 0
-12 6 -16 6 -3 15 -1 19 6 6 9 12 9 29 -1 11 -8 21 -17 21 -21 0 -5 8 -8 18
-8 13 1 11 6 -12 24 -19 16 -24 25 -15 28 9 3 8 6 -5 11 -10 4 -15 3 -11 -3 3
-6 -1 -10 -9 -10 -8 0 -18 5 -21 10 -3 6 -1 10 5 10 6 0 8 5 5 10 -3 6 0 10 7
10 9 0 9 3 -2 10 -23 15 -32 12 -25 -10 4 -14 2 -20 -9 -20 -8 0 -18 5 -21 10
-3 6 0 10 7 10 9 0 9 3 -2 10 -20 13 -33 13 -25 0 9 -14 -8 -13 -23 2 -8 8
-15 8 -26 -1 -8 -7 -20 -10 -25 -7 -5 4 -14 -2 -20 -11 -9 -16 -10 -15 -8 5 1
19 6 22 24 17 16 -4 23 -1 23 10 0 17 16 20 25 5 9 -15 25 -12 25 4 0 20 -26
40 -35 26 -4 -6 -15 -8 -26 -5 -11 4 -19 2 -19 -5 0 -7 -8 -9 -20 -5 -14 5
-20 2 -20 -10 0 -13 -4 -14 -21 -4 -17 9 -23 8 -30 -2 -7 -11 -9 -11 -9 2 0
23 11 30 27 18 10 -9 13 -8 13 5 0 9 5 16 11 16 5 0 7 4 4 10 -3 6 1 7 9 4 9
-3 14 -10 11 -14 -3 -5 -1 -11 5 -15 8 -5 16 39 11 68 -1 10 13 9 44 -3 17 -6
25 -16 22 -24 -3 -8 1 -17 9 -20 8 -3 14 1 14 9 0 18 12 19 27 4 9 -9 11 -7 6
9 -3 12 -11 18 -18 16 -7 -3 -26 1 -42 10 -19 10 -22 15 -11 16 9 0 20 -4 23
-10 3 -5 13 -10 21 -10 8 0 12 4 9 10 -4 7 2 7 19 0 48 -18 34 6 -20 35 -30
16 -54 33 -54 37 0 4 -7 8 -15 8 -8 0 -15 5 -15 10 0 6 5 10 11 10 6 0 4 7 -5
15 -8 9 -12 23 -9 32 4 11 3 14 -5 9 -7 -4 -12 -2 -12 3 0 6 -7 11 -16 11 -8
0 -12 -4 -9 -10 3 -6 -1 -7 -10 -4 -8 4 -21 1 -29 -5 -11 -9 -15 -6 -21 16 -5
16 -8 31 -7 35 1 4 -38 -11 -87 -33 -49 -21 -94 -39 -100 -39 -22 0 -11 19 27
46 64 48 75 68 42 79 -11 3 -23 18 -26 32 -5 16 -9 21 -14 13 -4 -7 -13 -9
-19 -6 -6 4 -11 1 -11 -8 0 -10 -6 -13 -15 -10 -8 4 -15 1 -15 -5 0 -6 -7 -11
-15 -11 -8 0 -15 -5 -15 -10 0 -6 -3 -10 -7 -9 -13 2 -53 -13 -53 -20 0 -3 10
-11 22 -16 13 -6 25 -19 27 -30 2 -11 9 -24 16 -30 17 -13 20 -32 10 -74 -8
-32 -9 -33 -17 -12 -4 12 -12 19 -18 16 -6 -4 -8 -11 -5 -16 4 -5 -1 -9 -10
-9 -11 0 -15 5 -11 15 3 8 1 15 -4 15 -6 0 -11 -6 -12 -12 0 -7 -2 -17 -3 -23
-2 -5 -3 -16 -4 -22 0 -7 -5 -13 -11 -13 -5 0 -7 7 -4 15 4 8 1 16 -5 16 -6 1
-15 2 -21 3 -5 0 -10 5 -9 10 0 5 -5 13 -13 17 -9 6 -9 9 -1 9 14 0 13 40 -2
40 -5 0 -3 5 5 11 13 9 13 10 0 6 -10 -2 -15 -16 -14 -46 0 -42 0 -42 -30 -35
-38 8 -34 4 -40 38 -7 38 -16 45 -17 15 -1 -13 -1 -27 0 -32 1 -4 -12 -6 -29
-5 -17 1 -30 8 -30 15 0 7 -6 13 -12 13 -9 0 -10 2 -2 8 7 4 8 15 3 27 -7 18
-8 18 -10 -5 -1 -14 -2 -31 -2 -37 1 -7 -9 -13 -21 -12 -11 0 -15 3 -8 6 6 2
12 13 12 24 0 10 -6 19 -12 19 -9 0 -8 4 2 11 13 9 13 10 0 6 -8 -2 -15 -16
-16 -31 -1 -30 -13 -48 -15 -23 -1 10 -3 22 -4 27 -1 6 -3 13 -4 18 -1 4 -6
-1 -12 -11 -6 -9 -15 -15 -20 -12 -5 4 -7 11 -4 16 4 5 -3 9 -13 9 -15 0 -19
-5 -15 -20 3 -12 0 -20 -6 -20 -7 0 -9 5 -6 10 6 9 -8 14 -27 11 -5 0 -8 6 -8
14 0 9 -10 15 -26 15 -14 0 -23 4 -20 9 3 5 -1 12 -10 15 -12 5 -15 2 -10 -10
3 -8 6 -18 6 -20 0 -2 7 -4 15 -4 8 0 15 -7 15 -16 0 -14 -1 -14 -16 0 -8 9
-20 14 -25 11 -5 -4 -9 1 -9 9 0 9 -9 16 -20 16 -18 0 -25 11 -21 34 1 5 -5 3
-14 -4 -13 -11 -18 -10 -31 6 -13 16 -15 16 -10 2 6 -22 -13 -35 -25 -17 -6
11 -9 10 -15 -4 -3 -9 -10 -14 -15 -11 -5 3 -7 10 -4 15 9 13 -9 11 -23 -3 -9
-9 -12 -9 -13 3 -1 7 -1 17 0 22 2 11 -13 9 -26 -4 -9 -9 -14 -5 -19 16 -4 18
-9 23 -14 14 -5 -7 -6 -18 -3 -25 2 -6 -1 -15 -8 -20 -8 -4 -10 -3 -5 4 4 7 3
12 -3 12 -5 0 -8 9 -6 20 5 26 -23 26 -70 0 -22 -12 -34 -15 -32 -7 1 6 11 15
22 19 19 6 19 6 -2 7 -12 1 -27 9 -33 19 -9 15 -10 14 -5 -5 8 -28 5 -28 -41
-2 -29 16 -35 17 -31 5 3 -9 2 -18 -3 -21 -6 -4 -10 -1 -10 4 0 6 -9 11 -19
11 -11 0 -23 5 -26 10 -11 17 -27 11 -21 -7 5 -14 3 -14 -11 3 -10 11 -30 25
-45 32 -23 9 -26 9 -21 -3 6 -17 -12 -20 -22 -4 -4 6 -13 8 -20 5 -8 -3 -17 4
-20 15 -4 10 -11 17 -16 13 -6 -3 -8 -12 -5 -20 3 -8 1 -14 -4 -14 -6 0 -10 5
-10 10 0 6 -3 10 -7 10 -20 -1 -35 -21 -48 -63 l-14 -47 95 -61 c51 -34 94
-64 94 -68 0 -10 -36 -30 -51 -27 -8 1 -32 11 -54 21 -49 22 -58 24 -67 10 -5
-6 -8 -6 -8 2 0 6 -8 9 -18 6 -11 -3 -36 -40 -63 -95 -24 -49 -50 -95 -58
-101 -12 -10 -14 -9 -8 5 3 9 1 19 -6 22 -9 3 -9 5 1 5 6 1 12 14 12 29 0 16
6 37 14 47 8 11 11 25 9 32 -3 8 1 21 9 31 8 9 23 47 32 84 18 77 22 213 5
202 -6 -3 -10 1 -9 12 4 34 0 44 -16 44 -14 0 -14 -3 -4 -15 7 -9 10 -18 7
-22 -4 -3 -12 6 -18 20 -7 15 -16 24 -21 21 -5 -3 -8 1 -6 9 2 9 -1 15 -7 14
-5 -1 -9 -5 -8 -9 2 -5 -2 -8 -7 -8 -10 0 -13 15 -12 63 0 26 -1 27 -15 10 -8
-10 -12 -13 -9 -7 3 6 1 24 -4 40 -5 19 -9 23 -9 10 -1 -20 -1 -20 -17 0 -15
19 -15 19 -11 -3 6 -28 -15 -21 -29 10 -5 12 -15 21 -22 20 -11 -3 -16 10 -13
30 0 4 -3 7 -8 7 -5 0 -12 14 -16 30 -4 17 -11 30 -16 30 -6 0 -8 4 -4 9 3 5
1 12 -5 16 -5 3 -10 0 -10 -7 0 -7 -13 2 -29 20 -17 17 -36 32 -44 32 -8 0
-20 6 -26 13 -15 19 46 113 95 146 36 25 65 81 42 81 -6 0 -8 9 -5 20 3 13 1
18 -6 13 -6 -4 -8 0 -4 10 4 10 0 20 -10 25 -10 6 -14 16 -10 26 4 10 3 15 -3
11 -6 -3 -10 -1 -10 6 0 7 -7 20 -16 30 -18 20 -32 67 -44 149 -25 159 -40
188 -157 301 -137 133 -223 184 -263 159z m88 -586 c7 -10 95 -54 108 -54 20
0 90 -71 106 -108 25 -56 18 -96 -27 -155 -19 -24 -32 -47 -29 -50 6 -5 -47
-47 -83 -66 -41 -21 -24 -5 28 28 28 17 49 34 46 38 -3 3 -18 -4 -32 -15 -35
-28 -121 -59 -184 -68 -47 -6 -49 -5 -44 15 3 11 9 18 14 15 10 -6 1 25 -12
42 -5 6 -5 15 -1 19 4 5 2 5 -4 2 -11 -6 -28 27 -25 47 1 5 -5 4 -13 -4 -13
-10 -16 -10 -16 1 0 12 -2 12 -9 1 -4 -8 -12 -13 -17 -12 -5 1 -10 -4 -12 -12
-2 -9 0 -8 7 2 6 8 11 10 11 4 0 -17 -22 -32 -42 -29 -11 2 -15 -2 -11 -13 5
-11 3 -13 -7 -7 -10 6 -12 4 -6 -10 6 -16 4 -16 -11 -4 -9 8 -14 9 -11 4 4 -6
-2 -17 -14 -24 -11 -7 -17 -8 -14 -3 3 5 -2 9 -11 8 -9 0 -30 18 -47 42 -28
39 -31 51 -31 116 0 63 4 79 30 121 62 99 158 147 283 142 40 -1 76 -7 80 -13z
m-431 -286 c-3 -7 -5 -2 -5 12 0 14 2 19 5 13 2 -7 2 -19 0 -25z m36 -60 c29
-49 69 -89 112 -111 17 -9 23 -16 15 -17 -9 0 -21 5 -27 11 -6 6 -17 9 -25 7
-8 -3 1 -12 22 -23 26 -14 63 -20 143 -23 l109 -4 -31 -19 c-38 -23 -105 -42
-156 -44 -22 -1 -50 -7 -62 -13 -31 -17 -56 -15 -49 3 3 8 1 15 -4 15 -17 0
-33 41 -21 53 6 6 11 19 11 30 0 19 -35 103 -53 125 -9 12 -18 52 -11 52 1 0
13 -19 27 -42z m257 -4 c5 -12 14 -25 19 -29 6 -3 11 -11 11 -17 0 -6 -9 1
-20 15 -11 14 -20 30 -20 37 0 6 -4 9 -9 5 -5 -3 -12 -2 -15 3 -3 5 2 9 10 9
9 0 20 -10 24 -23z m331 -78 c-12 -7 -19 -15 -15 -18 8 -8 -65 -40 -76 -33 -4
3 -11 -2 -14 -11 -4 -9 -9 -14 -13 -11 -3 4 -15 2 -25 -4 -16 -9 -19 -8 -16 2
7 20 90 60 115 56 13 -3 20 0 16 6 -8 13 26 39 40 30 5 -3 0 -11 -12 -17z
m-254 -51 c-24 -9 -62 -13 -104 -10 -94 6 -90 14 7 14 45 0 85 2 88 5 3 3 15
6 26 5 14 0 8 -5 -17 -14z m-1140 -47 c-3 -7 -5 -2 -5 12 0 14 2 19 5 13 2 -7
2 -19 0 -25z m-49 -21 c4 -21 -25 -34 -40 -19 -8 8 -8 16 2 27 16 19 34 15 38
-8z m2212 -307 c0 -5 -2 -10 -4 -10 -3 0 -8 5 -11 10 -3 6 -1 10 4 10 6 0 11
-4 11 -10z m-825 -79 c0 -50 -4 -66 -20 -77 -25 -19 -35 -18 -35 4 0 15 -2 15
-10 2 -6 -8 -8 -39 -5 -70 6 -52 5 -57 -28 -95 -34 -39 -63 -43 -39 -5 11 18
9 20 -12 20 -23 0 -30 20 -39 112 -1 9 -5 14 -10 11 -13 -8 3 38 23 67 10 14
30 36 45 50 24 23 28 24 39 8 11 -15 13 -15 24 3 7 11 17 17 22 14 6 -4 13 1
16 10 14 35 29 6 29 -54z m1115 32 c0 -10 -4 -14 -8 -8 -4 6 -11 13 -16 18 -5
4 -2 7 7 7 10 0 17 -8 17 -17z m-33 -9 c-3 -3 -12 -4 -19 -1 -8 3 -5 6 6 6 11
1 17 -2 13 -5z m263 -49 c0 -8 -5 -15 -11 -15 -5 0 -8 4 -5 9 4 5 0 12 -6 14
-8 3 -6 6 5 6 9 1 17 -6 17 -14z m-385 -105 c22 -13 42 -26 45 -30 3 -3 37
-31 76 -62 39 -31 79 -65 89 -74 17 -18 17 -19 -16 -32 -18 -8 -46 -23 -61
-34 -16 -10 -28 -16 -28 -12 0 4 -7 -1 -15 -12 -14 -18 -14 -18 -10 4 2 12 6
26 9 31 3 5 -9 24 -27 43 -17 19 -25 25 -17 13 15 -20 15 -20 -7 -1 -13 11
-23 25 -23 33 0 8 -4 11 -10 8 -5 -3 -10 1 -10 9 0 8 -12 24 -26 35 -15 12
-24 21 -20 21 3 0 -7 19 -24 41 -30 42 -32 63 -5 52 9 -3 15 1 15 8 0 9 3 9
13 -3 6 -8 30 -26 52 -38z m1377 -17 c-3 -16 -7 -22 -10 -15 -4 13 4 42 11 42
2 0 2 -12 -1 -27z m-565 11 c-3 -3 -12 -4 -19 -1 -8 3 -5 6 6 6 11 1 17 -2 13
-5z m173 -14 c0 -5 -2 -10 -4 -10 -3 0 -8 5 -11 10 -3 6 -1 10 4 10 6 0 11 -4
11 -10z m440 -6 c0 -2 -7 -4 -15 -4 -8 0 -15 4 -15 10 0 5 7 7 15 4 8 -4 15
-8 15 -10z m-520 -8 c0 -8 -5 -18 -12 -22 -7 -5 -8 -3 -3 6 4 7 2 16 -6 21
-11 7 -10 9 4 9 9 0 17 -6 17 -14z m435 -17 c-10 -15 -25 -10 -19 6 4 8 10 12
15 9 5 -3 7 -10 4 -15z m-225 -4 c0 -7 8 -18 18 -24 15 -9 15 -10 -4 -8 -24 1
-51 47 -28 47 8 0 14 -7 14 -15z m172 -17 c-9 -9 -12 -7 -12 12 0 19 3 21 12
12 9 -9 9 -15 0 -24z m-348 6 c3 -8 2 -12 -4 -9 -6 3 -10 10 -10 16 0 14 7 11
14 -7z m121 6 c3 -5 1 -10 -4 -10 -6 0 -11 5 -11 10 0 6 2 10 4 10 3 0 8 -4
11 -10z m-1084 -37 c13 -16 12 -17 -3 -4 -10 7 -18 15 -18 17 0 8 8 3 21 -13z
m1099 7 c0 -5 -5 -10 -11 -10 -5 0 -7 5 -4 10 3 6 8 10 11 10 2 0 4 -4 4 -10z
m130 -10 c0 -5 -5 -10 -11 -10 -5 0 -7 5 -4 10 3 6 8 10 11 10 2 0 4 -4 4 -10z
m-3135 -10 c-3 -5 -11 -10 -16 -10 -6 0 -7 5 -4 10 3 6 11 10 16 10 6 0 7 -4
4 -10z m3085 -4 c0 -3 -4 -8 -10 -11 -5 -3 -10 -1 -10 4 0 6 5 11 10 11 6 0
10 -2 10 -4z m30 -16 c0 -5 -2 -10 -4 -10 -3 0 -8 5 -11 10 -3 6 -1 10 4 10 6
0 11 -4 11 -10z m48 -24 c-7 -8 -15 -12 -17 -11 -5 6 10 25 20 25 5 0 4 -6 -3
-14z m99 -22 c-3 -3 -12 -4 -19 -1 -8 3 -5 6 6 6 11 1 17 -2 13 -5z m-32 -14
c17 -8 16 -8 -7 -7 -16 1 -28 5 -28 9 0 10 9 9 35 -2z m65 -24 c0 -3 -4 -8
-10 -11 -5 -3 -10 -1 -10 4 0 6 5 11 10 11 6 0 10 -2 10 -4z m-939 -157 c161
-80 234 -123 270 -156 78 -73 160 -214 239 -414 23 -56 47 -114 55 -129 17
-32 77 -91 159 -154 51 -39 66 -46 105 -46 45 0 46 1 65 48 46 110 177 370
206 404 16 20 50 44 74 53 39 15 47 15 79 2 19 -9 43 -27 53 -42 27 -41 20
-150 -15 -271 -35 -116 -71 -257 -71 -274 0 -10 3 -10 14 -1 11 9 15 6 19 -14
4 -25 -10 -49 -33 -57 -12 -4 -30 -95 -30 -150 0 -51 -21 -46 -33 8 -14 61 -2
252 17 299 26 61 62 174 72 224 1 7 8 35 14 61 9 36 9 104 1 138 -1 1 -5 2
-10 2 -5 0 -12 -13 -16 -29 -3 -16 -13 -35 -21 -41 -7 -7 -11 -16 -8 -21 3 -5
1 -8 -4 -7 -15 5 -112 -98 -127 -136 -8 -20 -15 -59 -16 -88 -1 -75 -20 -133
-44 -134 -45 -2 -46 -4 -20 -38 31 -41 53 -154 35 -183 -9 -15 -10 -11 -5 17
l6 35 -14 -30 c-8 -16 -29 -48 -46 -69 -22 -27 -28 -42 -20 -47 14 -8 -24 -35
-79 -55 -51 -18 -122 -18 -122 0 0 8 -17 20 -37 26 -21 7 -49 19 -63 28 -24
15 -24 14 -9 -4 33 -39 35 -50 7 -32 -15 10 -29 13 -34 8 -11 -11 -126 -52
-131 -47 -1 2 23 14 55 27 74 30 77 33 57 64 -10 15 -15 29 -12 33 4 3 9 -2
13 -11 3 -9 11 -16 16 -16 6 0 5 6 -2 15 -11 14 -20 78 -21 160 l0 30 -15 -34
c-7 -18 -14 -39 -14 -46 0 -7 -10 -19 -22 -27 -20 -13 -24 -13 -44 11 l-21 25
-52 -39 c-28 -22 -51 -41 -51 -44 0 -3 10 -15 22 -28 12 -13 17 -23 11 -23 -5
0 -19 10 -31 23 l-22 23 53 50 c28 28 94 86 145 128 75 63 91 81 81 92 -15 19
-49 18 -78 -3 -14 -9 -21 -11 -17 -5 7 11 -6 17 -27 13 -5 -1 -6 2 -3 7 3 5
-4 15 -15 23 -12 8 -30 28 -41 44 -12 17 -15 24 -8 18 22 -20 35 -15 17 5 -10
10 -17 26 -17 36 0 22 -26 73 -51 99 -10 12 -19 26 -19 32 0 7 -14 24 -32 39
-17 14 -29 26 -24 26 11 0 -43 68 -91 117 -24 23 -43 49 -43 58 0 12 -5 15
-16 11 -15 -6 -49 26 -49 45 0 3 -8 13 -17 23 -10 10 -18 15 -18 12 0 -3 -9 3
-20 14 -12 12 -18 25 -15 30 3 5 0 12 -6 16 -8 4 -9 3 -5 -4 16 -27 -12 -8
-59 38 -27 28 -56 50 -62 50 -7 0 -13 5 -13 10 0 6 -6 10 -13 10 -7 0 -22 7
-33 16 -18 14 -18 15 6 10 23 -5 23 -5 -3 7 -15 7 -24 17 -20 22 5 5 0 4 -9
-3 -14 -12 -16 -10 -14 12 2 14 -1 23 -6 20 -11 -7 -40 15 -33 26 2 4 -9 22
-25 40 -17 19 -31 38 -31 44 -4 36 11 56 44 56 9 0 117 -50 238 -111z m989
101 c24 -15 7 -18 -20 -3 -14 7 -18 13 -10 13 8 0 22 -4 30 -10z m-45 -18 c-3
-3 -11 0 -18 7 -9 10 -8 11 6 5 10 -3 15 -9 12 -12z m-4145 -20 c0 -10 -5 -23
-12 -30 -9 -9 -8 -12 5 -12 9 0 17 -5 17 -12 0 -6 -3 -8 -6 -5 -4 3 -15 2 -24
-3 -13 -7 -20 -6 -24 6 -8 21 -8 59 1 67 14 14 43 7 43 -11z m4266 3 c18 -13
18 -14 -4 -8 -12 3 -25 9 -28 14 -8 14 10 11 32 -6z m99 -53 c-6 -7 -45 9 -45
18 0 4 11 3 24 -3 14 -7 23 -13 21 -15z m131 -56 c1 -9 -2 -16 -7 -16 -5 0 -9
-7 -9 -15 0 -12 -5 -11 -29 3 -17 9 -29 24 -28 34 1 19 22 19 22 0 0 -6 6 -17
14 -24 12 -11 13 -10 8 5 -4 10 -1 17 6 18 9 0 9 2 0 6 -7 2 -13 9 -13 14 0
16 33 -7 36 -25z m229 -136 c-3 -5 -11 -10 -16 -10 -6 0 -7 5 -4 10 3 6 11 10
16 10 6 0 7 -4 4 -10z m-129 -25 c17 -16 14 -18 -10 -9 -9 3 -16 10 -16 15 0
13 9 11 26 -6z m192 -18 c5 -24 -15 -21 -21 4 -3 13 -1 19 6 16 7 -2 13 -11
15 -20z m-4588 -81 c0 -24 -8 -36 -36 -54 l-35 -23 14 28 c8 15 17 45 21 66 6
32 10 36 22 27 8 -7 14 -27 14 -44z m4603 -72 c-1 -5 8 -20 20 -33 l22 -24
-27 19 c-15 10 -26 24 -25 31 1 7 -7 19 -18 29 -19 15 -19 16 5 1 14 -8 24
-18 23 -23z m-29 -29 c11 -8 16 -15 10 -15 -5 0 -18 7 -28 15 -11 8 -16 15
-10 15 5 0 18 -7 28 -15z m176 -21 c0 -8 -19 -13 -24 -6 -3 5 1 9 9 9 8 0 15
-2 15 -3z m71 -11 c13 -17 13 -17 -6 -3 -11 8 -22 16 -24 17 -2 2 0 3 6 3 6 0
17 -8 24 -17z m-5164 -114 c-78 -79 -103 -81 -61 -3 15 27 29 51 31 53 2 4 62
17 88 20 6 0 -20 -31 -58 -70z m5273 6 c0 -7 -7 -15 -15 -19 -8 -3 -14 0 -12
7 1 7 -4 11 -11 9 -8 -1 -11 2 -7 7 3 6 13 7 22 4 12 -5 14 -3 8 7 -5 9 -4 11
3 6 7 -4 12 -13 12 -21z m167 -397 c-3 -7 -5 -2 -5 12 0 14 2 19 5 13 2 -7 2
-19 0 -25z m-4 -83 c-3 -9 -8 -14 -10 -11 -3 3 -2 9 2 15 9 16 15 13 8 -4z
m37 -11 c0 -8 -5 -12 -10 -9 -6 4 -8 11 -5 16 9 14 15 11 15 -7z m-680 -79
c19 -19 32 -35 29 -35 -3 0 -20 16 -39 35 -19 19 -32 35 -29 35 3 0 20 -16 39
-35z m-5 -154 c42 -46 50 -58 27 -42 -36 25 -95 92 -125 143 l-19 33 28 -35
c16 -19 55 -64 89 -99z m-54 92 c13 -16 12 -17 -3 -4 -10 7 -18 15 -18 17 0 8
8 3 21 -13z m45 -55 l29 -33 -32 29 c-18 17 -33 31 -33 33 0 8 8 1 36 -29z
m-866 -28 c-8 -5 -19 -10 -25 -10 -5 0 -3 5 5 10 8 5 20 10 25 10 6 0 3 -5 -5
-10z m-613 -92 l-22 -17 23 4 c12 2 26 6 31 9 5 4 7 -3 4 -13 -3 -13 -11 -18
-21 -14 -13 5 -14 3 -5 -7 8 -9 5 -25 -14 -69 -52 -116 -74 -195 -80 -288 -4
-64 -9 -90 -17 -86 -6 4 -5 -1 3 -10 10 -13 10 -17 1 -17 -10 0 -10 -3 -1 -14
8 -9 8 -16 2 -20 -6 -4 -8 -13 -5 -21 4 -8 11 -12 16 -9 6 4 5 -4 -2 -16 -7
-12 -7 -20 -2 -16 13 8 26 -49 16 -65 -5 -8 -3 -9 6 -4 11 7 12 -10 7 -86 -9
-156 -47 -228 -196 -375 -114 -113 -177 -160 -185 -139 -3 8 -1 15 5 15 6 0 8
4 5 9 -3 5 1 14 9 21 8 7 15 19 15 26 0 8 5 14 10 14 6 0 10 5 10 12 0 6 7 19
15 28 22 24 75 133 69 142 -3 4 -1 8 4 8 5 0 9 18 9 40 0 22 3 43 8 47 4 5 5
2 1 -4 -4 -7 -5 -13 -2 -13 3 0 10 9 16 20 8 15 8 18 -3 14 -19 -7 -15 78 6
110 16 24 16 25 -3 21 -11 -2 -23 2 -26 8 -4 7 -4 9 1 5 4 -4 15 -3 25 2 13 7
17 19 14 50 -2 22 0 40 5 40 13 0 20 39 9 47 -6 3 -8 2 -5 -3 3 -6 2 -16 -4
-24 -6 -11 -8 -6 -5 17 4 42 -4 54 -56 73 -33 12 -44 21 -46 40 -2 14 -7 30
-11 35 -5 6 -11 19 -15 29 -7 20 -7 20 15 0 22 -19 22 -19 17 4 -5 17 -2 22
15 23 44 3 82 7 85 9 1 1 5 3 10 4 4 1 13 5 21 10 11 7 12 6 6 -5 -7 -11 -6
-12 7 -2 27 23 40 -15 16 -47 -7 -9 -3 -5 10 8 28 29 28 73 1 98 -32 28 -39
56 -21 77 11 13 12 17 2 17 -7 0 -10 3 -7 6 4 4 14 1 23 -7 16 -13 16 -12 5
10 -11 19 -11 22 0 16 9 -6 10 -3 6 9 -6 14 -3 17 9 12 11 -4 15 0 14 17 -3
36 -1 40 15 27 13 -11 14 -10 9 5 -5 12 -4 16 4 11 6 -3 14 -1 18 5 4 7 3 9
-4 5 -7 -4 -10 2 -9 14 1 15 7 20 20 16 16 -4 16 -2 5 12 -11 13 -11 15 5 9 9
-3 17 -2 17 4 0 6 4 8 9 5 5 -4 7 3 4 14 -3 11 -10 20 -15 20 -5 0 -7 -4 -3
-9 3 -5 1 -12 -4 -15 -5 -4 -8 2 -7 11 2 13 12 18 34 17 27 -1 30 2 20 14 -10
11 -9 16 5 24 10 5 14 14 11 20 -4 7 -2 8 4 4 7 -4 12 -1 12 6 0 9 3 9 10 -2
7 -11 4 -20 -13 -32z m1419 21 c19 -11 34 -23 34 -26 0 -4 -62 30 -79 44 -16
12 18 -1 45 -18z m-1456 -2 c0 -2 -10 -12 -22 -23 l-23 -19 19 23 c18 21 26
27 26 19z m436 -56 c13 -30 12 -31 -11 -31 -19 0 -30 10 -45 40 -26 51 -26 51
11 36 19 -8 37 -26 45 -45z m949 -31 c4 0 1 7 -6 16 -11 13 -3 12 30 -5 23
-12 41 -25 38 -28 -3 -2 -15 1 -27 7 -12 6 -24 9 -27 6 -3 -2 17 -16 44 -30
26 -14 41 -25 31 -26 -18 0 -157 90 -179 116 -8 10 9 1 37 -19 28 -20 55 -37
59 -37z m662 -77 c1 -22 -1 -24 -8 -10 -6 9 -7 22 -4 27 9 14 10 13 12 -17z
m-527 7 c8 -5 11 -10 5 -10 -5 0 -17 5 -25 10 -8 5 -10 10 -5 10 6 0 17 -5 25
-10z m-1030 -23 c0 -7 -9 -35 -19 -62 -28 -74 -39 -105 -55 -155 -8 -25 -18
-44 -23 -44 -4 1 -28 5 -53 9 l-45 7 25 -18 c51 -36 51 -44 -2 -83 -67 -47
-68 -49 -68 -94 0 -48 22 -116 53 -166 11 -19 15 -31 9 -27 -7 4 -19 22 -28
39 -18 35 -54 73 -66 70 -4 -2 -18 12 -31 30 -70 93 -62 252 17 343 26 30 36
36 52 29 10 -4 29 -7 42 -6 13 2 30 -3 37 -9 23 -19 44 -4 66 47 28 67 89 128
89 90z m-90 -27 c-12 -16 -24 -30 -26 -30 -3 0 4 14 16 30 12 17 24 30 26 30
3 0 -4 -13 -16 -30z m348 -94 c37 -19 85 -50 107 -70 l40 -36 -70 34 c-88 42
-126 50 -168 36 -75 -24 -97 -81 -67 -169 l17 -52 -32 31 c-20 20 -39 53 -50
89 -15 52 -16 60 -2 94 9 20 30 45 49 57 48 29 98 25 176 -14z m463 -183 c81
-47 103 -71 32 -35 -64 33 -233 169 -233 188 0 4 28 -19 61 -50 34 -32 97 -78
140 -103z m-1 -118 c1 -17 -183 -184 -225 -204 -62 -29 -61 -15 4 39 57 48
101 98 101 117 0 6 14 22 30 36 33 29 37 46 18 66 -7 7 6 0 29 -15 23 -16 42
-33 43 -39z m634 19 c3 -8 2 -12 -4 -9 -6 3 -13 0 -16 -8 -8 -21 -58 -55 -90
-62 l-29 -7 32 21 c18 11 39 31 48 45 9 14 24 27 33 29 9 3 18 5 18 6 1 0 5
-6 8 -15z m-1131 -191 c-10 -7 -25 -20 -35 -27 -19 -17 -28 -11 -28 20 0 14
14 34 38 54 l37 31 3 -33 c3 -22 -2 -36 -15 -45z m-938 58 c3 -5 2 -12 -3 -15
-5 -3 -9 1 -9 9 0 17 3 19 12 6z m1005 -133 c0 -19 98 -156 155 -217 38 -42
49 -57 29 -44 -41 29 -106 101 -140 154 -32 51 -81 163 -59 135 8 -11 15 -24
15 -28z m179 -25 l33 -48 -37 40 c-19 22 -41 49 -47 60 -21 37 15 0 51 -52z
m-614 27 c10 -11 16 -20 13 -20 -3 0 -13 9 -23 20 -10 11 -16 20 -13 20 3 0
13 -9 23 -20z m348 -57 c15 -27 38 -67 52 -90 15 -24 22 -43 18 -43 -5 0 -19
20 -33 45 l-25 45 -100 0 c-105 0 -158 10 -190 35 -19 14 -18 14 8 5 39 -14
63 -13 80 4 11 11 17 12 26 3 10 -9 12 -9 9 2 -2 7 3 16 11 19 9 3 11 0 6 -8
-5 -8 1 -7 16 3 30 22 45 22 28 0 -13 -15 -12 -15 12 0 14 10 29 14 32 10 4
-3 7 -1 7 5 0 25 18 10 43 -35z m200 -72 l48 -66 -41 45 c-23 25 -51 63 -61
85 -11 22 -14 31 -7 21 7 -11 35 -49 61 -85z m-2515 69 c-7 -10 -14 -17 -17
-15 -4 4 18 35 25 35 2 0 -1 -9 -8 -20z m1537 -230 c3 -5 1 -10 -4 -10 -6 0
-11 5 -11 10 0 6 2 10 4 10 3 0 8 -4 11 -10z m5 -82 c0 -10 -3 -9 -10 2 -6 9
-10 10 -10 3 0 -6 5 -15 10 -18 6 -3 10 -13 10 -22 0 -15 -2 -14 -18 0 -10 10
-24 17 -31 17 -7 0 -9 5 -6 10 4 6 10 8 14 6 4 -3 5 12 3 32 l-4 37 21 -27
c11 -14 21 -32 21 -40z m-5 52 c3 -5 1 -10 -4 -10 -6 0 -11 5 -11 10 0 6 2 10
4 10 3 0 8 -4 11 -10z m-102 -85 c-3 -9 -8 -14 -10 -11 -3 3 -2 9 2 15 9 16
15 13 8 -4z m-38 -59 c0 -18 -3 -22 -13 -14 -9 8 -9 14 -1 24 15 18 14 18 14
-10z m35 4 c0 -5 -5 -10 -11 -10 -5 0 -7 5 -4 10 3 6 8 10 11 10 2 0 4 -4 4
-10z m-1610 -70 c0 -5 -5 -10 -11 -10 -5 0 -7 5 -4 10 3 6 8 10 11 10 2 0 4
-4 4 -10z m1604 -25 c3 -8 1 -15 -3 -15 -5 0 -11 7 -15 15 -3 8 -1 15 3 15 5
0 11 -7 15 -15z m36 -25 c0 -5 -2 -10 -4 -10 -3 0 -8 5 -11 10 -3 6 -1 10 4
10 6 0 11 -4 11 -10z m-702 -117 c17 -43 33 -91 36 -108 6 -32 -6 -8 -61 118
-25 54 -27 57 -44 41 -22 -20 -152 -47 -329 -69 -56 -7 -129 -25 -135 -34 -2
-4 0 -25 5 -47 4 -21 11 -57 14 -79 2 -22 10 -53 16 -69 6 -16 8 -31 6 -33 -7
-7 -43 118 -62 215 -19 97 -10 121 29 84 13 -12 31 -22 40 -22 24 0 369 69
375 75 3 3 22 5 42 5 37 0 37 0 68 -77z m655 27 c3 -11 1 -23 -4 -26 -5 -3 -9
6 -9 20 0 31 6 34 13 6z m31 -9 c3 -5 -2 -15 -12 -22 -15 -12 -16 -12 -5 2 7
9 10 19 6 22 -3 4 -4 7 0 7 3 0 8 -4 11 -9z m-929 -90 c-3 -6 -10 -9 -15 -6
-5 3 -13 -3 -19 -12 -9 -16 -10 -16 -8 4 1 14 7 20 19 18 10 -2 18 1 18 7 0 6
3 9 6 5 3 -3 3 -11 -1 -16z m-858 -67 c-3 -3 -12 -4 -19 -1 -8 3 -5 6 6 6 11
1 17 -2 13 -5z m1846 -31 c7 2 17 -3 24 -12 18 -23 16 -36 -4 -20 -11 10 -14
10 -9 2 4 -7 2 -13 -3 -13 -6 0 -11 6 -11 14 0 7 -7 19 -15 26 -8 7 -12 17 -8
24 5 7 9 5 11 -7 2 -10 9 -16 15 -14z m-1070 -46 c3 -8 -1 -14 -8 -14 -7 0
-11 6 -8 14 3 7 6 13 8 13 2 0 5 -6 8 -13z m1114 -22 c9 -24 -1 -27 -20 -5
-14 17 -15 20 -2 20 9 0 18 -7 22 -15z m125 -7 c-7 -7 -12 -8 -12 -2 0 14 12
26 19 19 2 -3 -1 -11 -7 -17z m15 -150 c-3 -8 -6 -5 -6 6 -1 11 2 17 5 13 3
-3 4 -12 1 -19z m-2175 -10 c-7 -7 -12 -8 -12 -2 0 14 12 26 19 19 2 -3 -1
-11 -7 -17z m12 -72 c-5 -14 -9 -15 -15 -5 -5 8 -3 17 4 21 15 9 19 4 11 -16z
m9 -31 c-3 -9 -8 -14 -10 -11 -3 3 -2 9 2 15 9 16 15 13 8 -4z m-55 -24 c-6
-10 -18 -17 -25 -14 -17 7 2 33 23 33 11 0 12 -4 2 -19z m467 -47 c42 -66 59
-104 45 -104 -5 0 -21 21 -36 48 -15 26 -36 62 -46 80 -34 56 0 35 37 -24z
m-474 6 c-26 -23 -41 -25 -41 -8 0 6 3 8 6 5 4 -3 16 0 28 8 30 22 35 18 7 -5z
m-98 -15 c-3 -9 -8 -14 -10 -11 -3 3 -2 9 2 15 9 16 15 13 8 -4z m-103 -65 c0
-5 -5 -10 -11 -10 -5 0 -7 5 -4 10 3 6 8 10 11 10 2 0 4 -4 4 -10z m2328 -79
c49 -52 67 -81 53 -81 -5 0 -11 4 -13 10 -1 5 -34 42 -73 82 -44 45 -59 65
-40 54 17 -10 49 -39 73 -65z m-1938 -11 l-11 -25 6 25 c2 14 5 34 6 45 2 19
2 19 6 0 2 -12 -1 -32 -7 -45z m2377 38 c-3 -8 -6 -5 -6 6 -1 11 2 17 5 13 3
-3 4 -12 1 -19z m-1947 -74 c0 -8 -19 -13 -24 -6 -3 5 1 9 9 9 8 0 15 -2 15
-3z m1990 -48 c0 -15 -29 9 -39 32 l-12 27 25 -27 c14 -15 26 -29 26 -32z
m-1023 -123 c-4 -3 0 -16 8 -29 11 -17 12 -24 2 -32 -13 -11 -129 -64 -131
-60 -1 2 -9 18 -18 36 l-17 33 32 20 c18 10 43 22 57 25 14 3 30 7 35 9 18 6
38 5 32 -2z m1030 -25 c-3 -7 -5 -2 -5 12 0 14 2 19 5 13 2 -7 2 -19 0 -25z
m-192 -102 c20 -46 36 -121 24 -109 -10 10 -49 143 -42 143 2 0 10 -15 18 -34z
m-2675 -451 c0 -7 3 -22 6 -32 4 -13 0 -11 -15 7 -24 29 -27 52 -6 44 8 -4 15
-12 15 -19z"/>
<path d="M3595 6380 c-3 -5 0 -18 6 -29 19 -29 -13 -75 -46 -67 -30 8 -38 -14
-25 -64 14 -53 60 -90 111 -90 37 0 53 13 27 23 -19 7 4 41 31 45 15 2 21 -2
21 -15 1 -16 3 -15 20 6 38 45 20 149 -32 185 -25 18 -103 22 -113 6z"/>
<path d="M4935 5041 c-3 -5 -2 -12 3 -15 5 -3 9 1 9 9 0 17 -3 19 -12 6z"/>
<path d="M5290 4710 c0 -5 5 -10 11 -10 5 0 7 5 4 10 -3 6 -8 10 -11 10 -2 0
-4 -4 -4 -10z"/>
<path d="M5786 4123 c-40 -45 -42 -57 -4 -23 13 10 32 26 43 34 13 9 16 18 10
24 -6 5 -25 -8 -49 -35z"/>
<path d="M5781 4022 c-15 -29 4 -104 34 -129 14 -13 31 -23 38 -23 7 0 0 8
-15 17 -15 10 -30 24 -34 33 -16 38 -22 85 -13 102 5 10 7 18 5 18 -3 0 -10
-8 -15 -18z"/>
<path d="M4910 3440 c-9 -6 -10 -10 -3 -10 6 0 15 5 18 10 8 12 4 12 -15 0z"/>
<path d="M4948 3269 c-11 -19 -34 -37 -58 -46 -26 -11 -37 -20 -31 -26 5 -5 7
-16 4 -24 -9 -24 74 23 93 51 8 14 14 36 12 50 l-3 26 -17 -31z"/>
<path d="M4834 2899 c-3 -6 -2 -15 3 -20 5 -5 9 -1 9 11 0 23 -2 24 -12 9z"/>
<path d="M5289 3343 c-13 -16 -12 -17 4 -4 16 13 21 21 13 21 -2 0 -10 -8 -17
-17z"/>
<path d="M4938 7013 c-45 -36 -117 -101 -160 -142 -42 -42 -111 -107 -153
-146 -43 -38 -84 -76 -91 -83 -8 -7 -14 -10 -14 -5 0 4 -5 0 -11 -9 -5 -10
-16 -18 -23 -18 -17 0 -28 -37 -12 -44 6 -2 3 -5 -6 -5 -23 -1 -23 -17 -2 -29
11 -6 13 -12 6 -16 -7 -4 -7 -17 -1 -39 l9 -32 -21 25 c-18 22 -19 23 -9 3 6
-13 9 -39 7 -58 -3 -26 -1 -33 7 -26 8 7 12 4 12 -8 0 -12 -5 -17 -14 -13 -12
4 -12 1 0 -18 10 -18 10 -24 1 -27 -14 -5 -18 -33 -5 -33 4 0 8 -8 8 -17 1
-10 5 -27 9 -37 5 -12 5 -17 -1 -13 -5 3 -10 -3 -10 -14 0 -10 3 -19 7 -19 4
0 10 -7 13 -16 3 -8 2 -13 -3 -10 -12 8 -22 -34 -12 -51 4 -8 4 -36 0 -61 -5
-26 -11 -77 -15 -113 l-6 -66 84 2 c62 2 95 8 125 23 52 27 105 71 97 83 -3 5
0 9 6 9 7 0 9 7 6 16 -4 11 -2 15 8 11 17 -7 28 27 20 63 -3 17 -2 20 3 8 7
-15 10 -15 28 -1 16 12 16 14 3 10 -14 -5 -16 -3 -8 11 5 9 21 44 35 77 15 33
31 68 36 77 5 10 9 30 9 45 0 22 2 25 10 13 8 -13 10 -12 10 3 0 9 5 26 12 36
16 26 -7 58 -28 40 -19 -16 -30 15 -16 45 6 15 7 28 1 37 -8 12 -10 12 -8 -1
3 -28 -1 -41 -10 -36 -5 3 -8 20 -7 36 1 17 -4 36 -11 41 -19 16 -28 78 -14
92 10 9 11 6 6 -13 -3 -14 -1 -37 5 -50 9 -23 10 -23 4 7 -3 17 0 41 6 53 6
11 7 20 3 19 -23 -4 -30 3 -27 27 2 24 1 25 -20 10 -22 -14 -23 -13 -20 12 1
15 2 30 3 33 1 7 27 37 80 94 20 22 40 47 44 55 4 8 16 30 27 48 11 18 17 38
14 44 -5 7 -1 9 9 5 14 -5 15 -2 6 20 -8 21 -7 24 6 19 12 -4 14 0 8 22 -6 24
-4 25 10 14 13 -11 15 -10 12 5 -1 10 2 24 8 31 20 25 -3 10 -85 -55z m-148
-327 c0 -3 -4 -8 -10 -11 -5 -3 -10 -1 -10 4 0 6 5 11 10 11 6 0 10 -2 10 -4z
m-131 -249 c1 -5 -3 -5 -9 -2 -5 3 -10 16 -9 28 0 21 1 21 9 2 5 -11 9 -24 9
-28z m51 -234 c-11 -17 -11 -17 -6 0 3 10 7 33 8 50 l1 32 4 -32 c2 -18 -1
-41 -7 -50z m-22 -39 c-4 -3 -2 -19 3 -36 4 -17 6 -35 3 -40 -9 -14 -34 12
-34 36 0 20 16 46 29 46 2 0 2 -3 -1 -6z"/>
<path d="M5015 6539 c-4 -6 -5 -12 -2 -15 2 -3 7 2 10 11 7 17 1 20 -8 4z"/>
<path d="M4980 6505 c0 -7 30 -13 34 -7 3 4 -4 9 -15 9 -10 1 -19 0 -19 -2z"/>
<path d="M4970 6481 c0 -6 4 -13 10 -16 6 -3 7 1 4 9 -7 18 -14 21 -14 7z"/>
<path d="M4940 6465 c1 -5 7 -19 15 -29 8 -11 15 -14 15 -8 0 7 0 14 0 17 0 3
-3 5 -6 4 -4 0 -11 5 -15 13 -5 7 -9 9 -9 3z"/>
<path d="M4896 6424 c-4 -9 -4 -19 -1 -22 2 -3 7 3 11 12 4 9 4 19 1 22 -2 3
-7 -3 -11 -12z"/>
<path d="M4926 6416 c6 -15 34 -30 34 -18 0 4 -9 13 -20 19 -16 11 -18 10 -14
-1z"/>
<path d="M1760 6330 c0 -15 22 -53 47 -78 7 -7 13 -17 13 -22 0 -5 9 -7 19 -5
13 2 18 -1 15 -10 -3 -7 -1 -16 5 -20 6 -3 11 2 11 13 0 23 -109 144 -110 122z"/>
<path d="M1983 6085 c0 -8 4 -12 9 -9 5 3 6 10 3 15 -9 13 -12 11 -12 -6z"/>
<path d="M4227 5841 c-4 -17 -3 -21 5 -13 5 5 8 16 6 23 -3 8 -7 3 -11 -10z"/>
<path d="M5528 5713 c7 -3 16 -2 19 1 4 3 -2 6 -13 5 -11 0 -14 -3 -6 -6z"/>
<path d="M5650 5689 c52 -24 66 -41 42 -51 -14 -7 -14 -7 3 -5 46 6 3 67 -52
73 l-38 4 45 -21z"/>
<path d="M5710 5686 c0 -9 40 -13 46 -5 3 5 -6 9 -20 9 -14 0 -26 -2 -26 -4z"/>
<path d="M4660 5660 c0 -5 5 -10 10 -10 6 0 10 5 10 10 0 6 -4 10 -10 10 -5 0
-10 -4 -10 -10z"/>
<path d="M4735 5660 c3 -5 8 -10 11 -10 2 0 4 5 4 10 0 6 -5 10 -11 10 -5 0
-7 -4 -4 -10z"/>
<path d="M5226 5565 c4 -8 7 -15 9 -15 2 0 5 7 9 15 3 9 0 15 -9 15 -9 0 -12
-6 -9 -15z"/>
<path d="M5704 5572 c3 -6 -2 -15 -11 -21 -16 -9 -15 -11 9 -20 17 -6 26 -16
22 -24 -3 -8 2 -20 11 -27 13 -11 15 -9 15 12 0 14 -9 33 -20 43 -11 10 -17
21 -15 26 3 4 0 11 -6 15 -7 4 -9 3 -5 -4z"/>
<path d="M5311 5554 c0 -11 3 -14 6 -6 3 7 2 16 -1 19 -3 4 -6 -2 -5 -13z"/>
<path d="M5260 5546 c0 -8 5 -18 10 -21 6 -3 10 3 10 14 0 12 -4 21 -10 21 -5
0 -10 -6 -10 -14z"/>
<path d="M1314 5495 c-24 -26 -44 -57 -44 -67 0 -28 111 -140 203 -207 154
-111 177 -114 236 -40 26 32 38 56 34 67 -10 27 -71 100 -108 128 -28 21 -37
23 -54 14 -12 -6 -24 -22 -27 -35 -3 -14 -10 -25 -15 -25 -8 0 -109 61 -153
93 -19 13 -19 14 2 49 23 36 21 41 -16 63 -9 5 -28 -9 -58 -40z"/>
<path d="M6115 5523 c2 -10 4 -20 5 -23 1 -3 2 -8 1 -12 -1 -10 59 -41 66 -34
3 3 -6 11 -20 17 -16 7 -28 23 -32 40 -7 31 -26 41 -20 12z"/>
<path d="M5636 5523 c6 -4 14 -15 17 -23 5 -11 6 -9 4 4 -1 11 -9 21 -17 23
-10 3 -11 2 -4 -4z"/>
<path d="M5467 5491 c3 -12 10 -21 15 -21 13 0 6 32 -9 37 -7 3 -9 -3 -6 -16z"/>
<path d="M5547 5480 c3 -11 10 -20 15 -20 5 0 6 5 3 10 -3 6 0 10 7 10 9 0 9
3 -2 10 -23 15 -29 12 -23 -10z"/>
<path d="M5675 5490 c3 -5 11 -10 16 -10 6 0 7 5 4 10 -3 6 -11 10 -16 10 -6
0 -7 -4 -4 -10z"/>
<path d="M6182 5493 c-10 -4 -7 -9 8 -20 12 -8 24 -12 27 -9 3 3 -2 8 -11 12
-9 3 -13 10 -10 15 6 10 5 10 -14 2z"/>
<path d="M5630 5480 c0 -6 4 -10 10 -10 5 0 7 -7 4 -15 -4 -8 -1 -15 5 -15 17
0 13 37 -4 44 -8 3 -15 1 -15 -4z"/>
<path d="M6200 5440 c0 -5 5 -10 11 -10 5 0 7 5 4 10 -3 6 -8 10 -11 10 -2 0
-4 -4 -4 -10z"/>
<path d="M6730 5422 c0 -15 -13 -21 -60 -30 -33 -6 -73 -20 -89 -31 -38 -27
-49 -81 -24 -116 38 -52 146 -71 213 -37 41 20 79 82 73 120 -10 63 -15 74
-46 92 -40 25 -67 26 -67 2z"/>
<path d="M6260 5371 c0 -5 7 -12 16 -15 14 -5 15 -4 4 9 -14 17 -20 19 -20 6z"/>
<path d="M6095 5360 c3 -5 14 -10 23 -10 15 0 15 2 2 10 -20 13 -33 13 -25 0z"/>
<path d="M2489 5336 c14 -14 27 -26 29 -26 10 0 -26 44 -39 48 -8 3 -3 -7 10
-22z"/>
<path d="M6105 5330 c3 -5 8 -10 11 -10 2 0 4 5 4 10 0 6 -5 10 -11 10 -5 0
-7 -4 -4 -10z"/>
<path d="M6233 5323 c2 -12 6 -26 10 -29 11 -11 8 19 -3 36 -8 12 -9 10 -7 -7z"/>
<path d="M6185 5320 c3 -5 11 -10 16 -10 6 0 7 5 4 10 -3 6 -11 10 -16 10 -6
0 -7 -4 -4 -10z"/>
<path d="M6195 5290 c3 -5 8 -10 11 -10 2 0 4 5 4 10 0 6 -5 10 -11 10 -5 0
-7 -4 -4 -10z"/>
<path d="M6306 5290 c5 -8 9 -18 9 -22 0 -3 3 -9 7 -13 3 -4 5 0 4 9 -1 9 -8
22 -16 29 -10 10 -11 9 -4 -3z"/>
<path d="M6270 5280 c0 -5 5 -10 11 -10 5 0 7 5 4 10 -3 6 -8 10 -11 10 -2 0
-4 -4 -4 -10z"/>
<path d="M2572 5240 c14 -22 24 -19 15 5 -4 8 -11 15 -17 15 -6 0 -6 -7 2 -20z"/>
<path d="M6275 5250 c3 -5 8 -10 11 -10 2 0 4 5 4 10 0 6 -5 10 -11 10 -5 0
-7 -4 -4 -10z"/>
<path d="M6300 5242 c0 -12 19 -26 26 -19 2 2 -2 10 -11 17 -9 8 -15 8 -15 2z"/>
<path d="M3225 5210 c-3 -5 -1 -10 4 -10 6 0 11 5 11 10 0 6 -2 10 -4 10 -3 0
-8 -4 -11 -10z"/>
<path d="M6410 5206 c0 -2 7 -9 15 -16 9 -7 15 -8 15 -2 0 5 -7 12 -15 16 -8
3 -15 4 -15 2z"/>
<path d="M6337 5188 c4 -7 8 -16 9 -20 1 -5 2 -11 3 -15 1 -5 5 -1 11 7 5 9 5
19 -2 27 -14 17 -32 17 -21 1z"/>
<path d="M6380 5184 c0 -8 5 -12 10 -9 6 4 8 11 5 16 -9 14 -15 11 -15 -7z"/>
<path d="M6405 5150 c3 -5 11 -10 16 -10 6 0 7 5 4 10 -3 6 -11 10 -16 10 -6
0 -7 -4 -4 -10z"/>
<path d="M6375 5140 c3 -5 11 -10 16 -10 6 0 7 5 4 10 -3 6 -11 10 -16 10 -6
0 -7 -4 -4 -10z"/>
<path d="M2660 5069 c18 -34 77 -85 88 -75 8 9 -38 68 -71 91 l-37 25 20 -41z"/>
<path d="M6485 5100 c3 -5 8 -10 11 -10 2 0 4 5 4 10 0 6 -5 10 -11 10 -5 0
-7 -4 -4 -10z"/>
<path d="M6365 5090 c3 -5 11 -10 16 -10 6 0 7 5 4 10 -3 6 -11 10 -16 10 -6
0 -7 -4 -4 -10z"/>
<path d="M1716 5045 c4 -8 8 -15 10 -15 2 0 4 7 4 15 0 8 -4 15 -10 15 -5 0
-7 -7 -4 -15z"/>
<path d="M6480 5050 c0 -5 5 -10 11 -10 5 0 7 5 4 10 -3 6 -8 10 -11 10 -2 0
-4 -4 -4 -10z"/>
<path d="M6565 5050 c3 -5 11 -10 16 -10 6 0 7 5 4 10 -3 6 -11 10 -16 10 -6
0 -7 -4 -4 -10z"/>
<path d="M1710 5011 c0 -6 4 -13 10 -16 6 -3 7 1 4 9 -7 18 -14 21 -14 7z"/>
<path d="M6510 5012 c0 -12 19 -26 26 -19 2 2 -2 10 -11 17 -9 8 -15 8 -15 2z"/>
<path d="M6643 4995 c0 -8 4 -12 9 -9 5 3 6 10 3 15 -9 13 -12 11 -12 -6z"/>
<path d="M6590 4962 c0 -12 19 -26 26 -19 2 2 -2 10 -11 17 -9 8 -15 8 -15 2z"/>
<path d="M6555 4950 c3 -5 11 -10 16 -10 6 0 7 5 4 10 -3 6 -11 10 -16 10 -6
0 -7 -4 -4 -10z"/>
<path d="M6715 4930 c3 -5 8 -10 11 -10 2 0 4 5 4 10 0 6 -5 10 -11 10 -5 0
-7 -4 -4 -10z"/>
<path d="M6796 4715 c4 -8 11 -15 16 -15 6 0 5 6 -2 15 -7 8 -14 15 -16 15 -2
0 -1 -7 2 -15z"/>
<path d="M7225 4646 c-31 -13 -48 -30 -58 -57 -4 -13 6 -12 61 9 87 32 198 36
260 8 23 -10 39 -23 35 -29 -3 -6 -1 -7 5 -3 7 4 12 2 12 -5 0 -6 10 -20 22
-30 11 -11 17 -19 12 -19 -6 0 -15 5 -21 11 -15 15 -11 -4 11 -53 9 -21 16
-48 16 -62 0 -14 5 -28 10 -31 6 -4 8 -10 5 -15 -3 -5 0 -12 7 -16 7 -4 10 -4
6 1 -4 4 -1 17 7 29 20 27 19 75 0 82 -13 5 -13 9 -3 23 7 9 8 13 3 8 -5 -4
-20 14 -34 40 -37 69 -107 103 -208 103 -40 0 -73 4 -73 8 0 13 -43 12 -75 -2z
m364 -164 c0 -14 -2 -14 -6 -2 -4 8 -13 21 -22 28 -14 11 -13 11 7 2 12 -6 22
-18 21 -28z m13 -71 c2 -17 1 -28 -4 -25 -8 5 -12 54 -4 54 2 0 6 -13 8 -29z"/>
<path d="M7530 4620 c0 -5 5 -10 11 -10 5 0 7 5 4 10 -3 6 -8 10 -11 10 -2 0
-4 -4 -4 -10z"/>
<path d="M7340 4560 c-41 -7 -95 -34 -106 -52 -5 -8 3 -6 17 4 144 93 334 -14
275 -156 -18 -44 -12 -47 10 -5 21 42 13 100 -20 144 -42 55 -103 77 -176 65z"/>
<path d="M7472 4285 c-45 -32 -130 -49 -178 -36 -50 14 -56 6 -8 -9 21 -7 58
-10 86 -7 50 6 138 49 138 67 0 12 2 13 -38 -15z"/>
<path d="M7286 3985 c-3 -8 -1 -15 4 -15 6 0 10 7 10 15 0 8 -2 15 -4 15 -2 0
-6 -7 -10 -15z"/>
<path d="M7260 3920 c0 -5 5 -10 11 -10 5 0 7 5 4 10 -3 6 -8 10 -11 10 -2 0
-4 -4 -4 -10z"/>
<path d="M7140 3590 c0 -5 5 -10 11 -10 5 0 7 5 4 10 -3 6 -8 10 -11 10 -2 0
-4 -4 -4 -10z"/>
<path d="M6779 3188 c-27 -28 -45 -38 -68 -38 -23 0 -31 -5 -31 -17 0 -14 2
-15 9 -5 4 8 11 13 15 12 24 -8 68 14 92 45 36 48 28 49 -17 3z"/>
<path d="M7204 3174 c-17 -19 -27 -34 -23 -34 5 0 9 -4 9 -10 0 -5 -9 -10 -20
-10 -32 0 -98 -37 -111 -63 -11 -20 -10 -20 17 4 30 27 82 49 116 49 11 0 40
-15 65 -32 l45 -33 30 34 c34 38 35 35 -47 93 l-50 35 -31 -33z"/>
<path d="M6617 3163 c30 -31 62 -46 48 -23 -3 6 -11 10 -18 10 -6 0 -23 10
-37 23 -14 12 -11 7 7 -10z"/>
<path d="M6990 3075 c-12 -13 -24 -36 -25 -50 -2 -14 -9 -32 -15 -40 -16 -20
-9 -60 11 -59 11 1 15 -5 12 -16 -3 -10 0 -34 6 -54 9 -34 8 -36 -6 -24 -15
12 -15 11 -5 -9 11 -19 15 -20 43 -10 30 12 30 12 7 18 -13 4 -17 7 -9 8 11 1
11 4 1 16 -15 18 0 20 20 3 8 -7 6 -3 -3 9 -24 28 -49 111 -36 118 5 4 9 14 8
23 0 14 -2 14 -10 -3 -7 -15 -8 -9 -3 20 3 22 13 48 21 58 25 26 9 20 -17 -8z"/>
<path d="M7024 2995 c-3 -19 -3 -47 1 -62 8 -33 51 -93 67 -93 7 0 0 12 -14
28 -47 50 -60 100 -38 143 7 12 7 19 1 19 -6 0 -13 -16 -17 -35z"/>
<path d="M6465 2910 c-3 -5 -1 -10 4 -10 6 0 11 5 11 10 0 6 -2 10 -4 10 -3 0
-8 -4 -11 -10z"/>
<path d="M7318 2898 c-25 -21 -98 -127 -138 -200 -26 -48 -25 -67 2 -77 20 -7
26 -1 56 60 19 37 50 85 69 106 21 23 27 27 14 9 -24 -32 -27 -51 -8 -40 7 4
9 3 4 -2 -5 -5 -14 -9 -19 -9 -6 0 -13 -6 -16 -14 -3 -9 0 -11 8 -6 9 6 9 3 1
-14 -14 -25 -22 -28 -15 -3 13 41 -26 -22 -52 -86 -29 -67 -41 -85 -56 -76
-16 10 -7 -10 14 -33 12 -13 23 -33 25 -45 4 -28 7 -30 27 -22 12 5 16 16 14
37 -2 16 2 32 8 34 7 2 10 -5 7 -20 -7 -35 19 -77 82 -136 57 -52 64 -64 20
-35 -16 10 -29 13 -40 7 -14 -8 -7 -16 37 -46 29 -20 58 -37 64 -37 27 0 104
53 110 75 8 34 -26 103 -76 153 -44 43 -93 75 -102 66 -3 -2 -11 2 -18 11 -7
8 -19 15 -26 15 -17 0 -18 12 -1 29 10 11 9 13 -3 7 -8 -4 -4 2 10 14 14 12
19 19 12 15 -11 -6 -11 -3 -1 13 7 12 17 19 21 16 4 -3 5 1 2 9 -3 8 0 18 7
23 8 5 10 3 4 -6 -5 -8 -4 -11 3 -6 6 4 8 14 5 23 -5 12 -3 14 7 8 8 -5 11 -4
7 3 -9 13 2 44 13 37 9 -6 40 79 40 110 0 29 -9 36 -32 24 -14 -8 -25 -6 -43
5 -29 19 -27 19 -47 4z m142 -439 c16 -28 9 -24 -35 23 -38 40 -39 40 -7 19
17 -12 37 -31 42 -42z m-87 -85 c39 -34 39 -35 8 -18 -36 21 -81 69 -81 87 0
6 7 2 15 -10 8 -12 34 -38 58 -59z"/>
<path d="M6406 2869 c-14 -17 -26 -36 -26 -42 0 -7 5 -3 11 8 6 11 23 30 38
42 14 13 21 23 14 23 -6 0 -23 -14 -37 -31z"/>
<path d="M7115 2833 c-22 -12 -44 -24 -50 -26 -6 -2 -6 -12 1 -28 10 -22 18
-24 75 -25 55 -1 58 0 24 6 -22 4 -35 8 -29 9 5 0 18 7 28 14 15 11 15 16 4
43 l-13 30 -40 -23z"/>
<path d="M7200 2830 c-24 -8 -24 -8 5 -9 17 0 37 4 45 9 12 8 11 10 -5 9 -11
-1 -31 -5 -45 -9z"/>
<path d="M674 2722 c-23 -11 -54 -37 -70 -58 -24 -31 -29 -48 -31 -103 -1 -50
2 -68 15 -79 12 -10 13 -12 2 -7 -10 4 -9 2 2 -8 10 -8 14 -17 10 -21 -4 -4
-2 -6 3 -5 6 2 28 -8 50 -23 23 -14 60 -29 84 -33 27 -4 53 -17 67 -32 21 -23
24 -23 56 -10 73 31 137 147 123 225 -9 52 -51 109 -102 139 -60 35 -152 41
-209 15z"/>
<path d="M3331 2564 c0 -11 3 -14 6 -6 3 7 2 16 -1 19 -3 4 -6 -2 -5 -13z"/>
<path d="M5540 2484 c0 -14 -5 -35 -11 -47 -10 -21 -10 -21 5 -3 15 18 23 76
11 76 -3 0 -5 -12 -5 -26z"/>
<path d="M6634 2427 c3 -13 -1 -32 -9 -44 -13 -19 -10 -24 51 -74 73 -60 142
-109 156 -109 5 0 11 7 14 15 9 23 37 19 31 -5 -3 -11 -2 -20 2 -20 12 0 51
45 51 58 0 15 -69 92 -80 89 -5 -1 -16 7 -25 18 -9 11 -13 14 -10 6 5 -9 -1
-8 -19 4 -25 17 -38 34 -14 19 7 -4 8 -3 4 5 -4 6 -12 9 -17 6 -5 -4 -17 -1
-26 4 -10 6 -13 11 -8 11 19 2 -60 39 -84 40 -19 0 -22 -4 -17 -23z m141 -127
c3 0 3 6 -1 13 -4 7 -3 9 2 4 5 -5 9 -13 9 -17 0 -5 9 -16 20 -25 19 -15 18
-15 -10 -1 -16 8 -48 31 -70 51 l-40 37 41 -31 c23 -17 45 -31 49 -31z"/>
<path d="M7621 2401 c-49 -53 -128 -242 -115 -275 5 -12 45 -15 95 -7 3 1 30
47 59 102 46 89 51 103 36 111 -20 11 -21 57 -1 64 14 6 13 8 -2 20 -27 20
-42 17 -72 -15z m19 -136 c-12 -25 -24 -44 -26 -42 -2 2 6 25 18 50 12 25 24
44 26 42 3 -2 -6 -25 -18 -50z"/>
<path d="M5545 2399 c-11 -17 1 -21 15 -4 8 9 8 15 2 15 -6 0 -14 -5 -17 -11z"/>
<path d="M4910 2382 c0 -14 28 -23 36 -11 3 6 3 13 0 16 -3 4 -6 1 -6 -7 0
-10 -3 -10 -15 0 -9 7 -15 8 -15 2z"/>
<path d="M7839 2310 c-1 -3 -1 -9 0 -13 1 -5 -7 -6 -18 -2 -11 3 -22 1 -26 -4
-4 -7 1 -8 12 -4 13 5 11 -1 -9 -26 -42 -49 -39 -108 6 -155 36 -39 35 -46 -4
-20 l-25 17 23 -24 c18 -20 33 -24 82 -25 39 -1 57 2 53 9 -4 6 0 8 9 4 19 -7
38 11 31 29 -4 12 -8 12 -22 2 -14 -11 -14 -11 -3 4 7 9 21 15 32 13 14 -3 16
1 12 17 -3 12 -1 19 4 15 6 -3 10 11 9 33 0 21 -2 36 -4 34 -2 -2 -11 11 -21
28 -9 18 -23 34 -30 36 -7 3 -3 -8 9 -24 11 -16 23 -45 26 -64 l5 -35 -13 35
c-7 19 -19 46 -27 60 -8 14 -13 28 -12 32 3 12 -53 37 -77 35 -11 -1 -22 -4
-22 -7z m1 -53 c-14 -12 -21 -18 -14 -14 7 5 15 3 20 -4 5 -8 3 -9 -6 -4 -10
6 -12 4 -7 -8 3 -9 2 -19 -4 -22 -5 -4 -7 -11 -4 -16 4 -5 -1 -12 -9 -15 -24
-9 -19 -30 10 -53 18 -14 22 -21 11 -21 -25 0 -57 49 -57 87 0 25 8 43 29 64
16 16 35 29 43 29 7 0 2 -10 -12 -23z"/>
<path d="M7804 2204 c1 -8 4 -15 7 -16 2 -2 3 -1 2 1 -2 2 2 9 7 16 7 8 5 12
-4 12 -8 0 -13 -6 -12 -13z"/>
<path d="M5229 2241 c-33 -11 -72 -32 -80 -43 -12 -18 27 -104 64 -143 32 -34
57 -86 57 -121 0 -15 36 -55 47 -52 5 2 28 -16 50 -39 44 -45 60 -51 82 -30
11 10 12 9 6 -2 -6 -11 -2 -10 16 2 32 23 62 21 86 -5 36 -39 44 -92 30 -192
-11 -72 -11 -101 -1 -155 7 -36 11 -75 8 -87 -5 -18 -2 -20 23 -17 19 3 34 -1
42 -11 8 -9 18 -16 23 -16 5 0 34 -20 65 -45 30 -25 52 -45 48 -45 -4 0 23
-33 61 -73 38 -40 97 -106 131 -148 101 -122 185 -152 226 -81 11 19 21 44 22
56 2 13 15 49 29 81 15 32 30 72 33 89 3 17 12 43 19 58 19 37 19 247 0 292
-14 34 -53 76 -144 157 l-52 46 6 62 c5 44 3 65 -7 77 -7 9 -14 23 -15 30 -3
21 -53 84 -73 92 -29 11 -43 31 -36 53 7 21 7 21 -17 3 -14 -10 -25 -24 -25
-31 0 -12 4 -14 22 -13 3 0 15 -9 27 -20 12 -11 25 -20 29 -20 5 0 20 -20 34
-43 43 -75 30 -147 -37 -201 -18 -14 -38 -30 -44 -36 -7 -5 -16 -6 -20 -2 -5
4 -3 0 4 -9 15 -20 -1 -29 -49 -29 -86 0 -161 70 -174 162 -11 73 2 122 45
171 l39 44 -29 22 c-25 18 -29 19 -24 4 4 -13 0 -12 -15 6 -21 24 -29 57 -11
46 6 -3 10 3 10 14 0 10 3 28 7 38 4 13 0 11 -16 -7 -21 -24 -23 -24 -49 -8
-92 57 -155 82 -262 104 -119 25 -167 28 -211 15z m441 -877 c0 -8 -5 -12 -10
-9 -6 4 -8 11 -5 16 9 14 15 11 15 -7z m35 -4 c3 -6 -1 -7 -9 -4 -18 7 -21 14
-7 14 6 0 13 -4 16 -10z"/>
<path d="M540 2227 c-32 -16 -79 -102 -80 -145 0 -36 19 -81 44 -101 12 -10
17 -8 31 12 l16 25 70 -35 c60 -29 76 -33 114 -27 62 9 99 52 92 105 -16 120
-185 218 -287 166z"/>
<path d="M4935 2169 c-4 -6 -5 -12 -2 -15 2 -3 7 2 10 11 7 17 1 20 -8 4z"/>
<path d="M5781 2124 c-1 -12 7 -30 17 -41 9 -10 13 -13 9 -7 -5 7 -12 25 -17
41 -7 23 -8 24 -9 7z"/>
<path d="M7331 2084 c0 -16 6 -39 15 -50 8 -10 12 -12 8 -4 -4 8 -11 30 -15
50 -7 35 -7 35 -8 4z"/>
<path d="M6634 2051 c-70 -45 -100 -76 -85 -86 6 -3 16 -3 21 0 6 3 10 -1 10
-9 0 -20 -3 -20 56 8 77 38 91 51 75 70 -11 13 -9 17 13 27 14 7 23 16 20 20
-11 19 -53 7 -110 -30z"/>
<path d="M3210 2069 c0 -5 5 -7 10 -4 6 3 10 8 10 11 0 2 -4 4 -10 4 -5 0 -10
-5 -10 -11z"/>
<path d="M3401 2034 c0 -11 3 -14 6 -6 3 7 2 16 -1 19 -3 4 -6 -2 -5 -13z"/>
<path d="M7528 1995 c-16 -13 -24 -26 -19 -29 8 -5 30 15 45 42 10 17 5 15
-26 -13z"/>
<path d="M5907 1976 c-115 -34 -148 -165 -62 -250 42 -42 89 -52 144 -30 86
34 112 131 58 213 -38 57 -90 82 -140 67z m50 -32 c5 -13 8 -13 15 -2 6 9 7 5
2 -12 -3 -14 -11 -30 -16 -37 -6 -7 -5 -14 2 -18 6 -3 7 -11 4 -17 -4 -7 -2
-8 4 -4 8 4 12 0 12 -11 0 -15 2 -16 10 -3 6 9 5 17 -3 22 -9 6 -9 8 1 8 7 0
11 4 7 9 -3 5 -1 12 4 15 5 4 8 -2 7 -11 -4 -24 15 -53 29 -46 5 4 0 -5 -12
-19 -13 -13 -23 -28 -23 -33 0 -4 10 0 23 11 l22 19 -19 -23 c-11 -13 -21 -32
-23 -44 -3 -17 -1 -19 12 -8 8 7 12 17 8 23 -4 6 -1 7 7 2 10 -6 7 -14 -13
-31 -56 -48 -133 -40 -182 18 -60 71 -6 208 82 208 21 0 36 -6 40 -16z m62
-28 c17 -19 20 -26 9 -32 -7 -4 -10 -3 -5 1 4 5 -3 19 -15 32 -12 13 -19 23
-16 23 2 0 15 -11 27 -24z m-36 -24 c-3 -12 -9 -19 -14 -16 -5 3 -3 14 3 24
15 24 19 21 11 -8z m74 -94 c-3 -8 -6 -5 -6 6 -1 11 2 17 5 13 3 -3 4 -12 1
-19z"/>
<path d="M5946 1931 c4 -15 2 -21 -4 -17 -6 3 -13 2 -16 -3 -4 -5 1 -8 9 -7
23 3 28 13 15 33 -10 16 -10 15 -4 -6z"/>
<path d="M5916 1843 c-6 -14 -5 -15 5 -6 7 7 10 15 7 18 -3 3 -9 -2 -12 -12z"/>
<path d="M6000 1832 c0 -16 -4 -21 -12 -16 -7 4 -10 4 -6 -1 4 -4 3 -15 -2
-25 -6 -12 -5 -17 5 -17 8 0 12 4 9 9 -3 5 1 17 10 26 10 12 12 22 6 32 -8 12
-10 10 -10 -8z"/>
<path d="M5925 1821 c-3 -5 -2 -12 3 -15 5 -3 9 1 9 9 0 17 -3 19 -12 6z"/>
<path d="M5978 1753 c7 -3 16 -2 19 1 4 3 -2 6 -13 5 -11 0 -14 -3 -6 -6z"/>
<path d="M1797 1949 c-9 -6 -17 -15 -17 -20 0 -6 10 -3 21 5 12 8 28 12 35 9
8 -3 14 -1 14 4 0 12 -32 13 -53 2z"/>
<path d="M1744 1919 c-19 -22 -19 -22 4 -8 12 8 22 17 22 21 0 12 -6 9 -26
-13z"/>
<path d="M5181 1874 c0 -11 3 -14 6 -6 3 7 2 16 -1 19 -3 4 -6 -2 -5 -13z"/>
<path d="M2849 1837 c-13 -10 -18 -16 -10 -12 7 4 17 2 22 -6 7 -11 9 -10 9 4
0 9 7 17 15 17 8 0 15 4 15 8 0 15 -27 9 -51 -11z"/>
<path d="M7001 1803 c-11 -11 -11 -17 -2 -23 9 -5 9 -11 -3 -23 -20 -20 -20
-23 2 -32 46 -19 82 -22 93 -9 8 10 8 14 0 14 -6 0 -11 -5 -11 -12 0 -20 -11
-1 -16 28 -3 16 -9 31 -15 32 -5 2 -9 8 -9 14 0 6 8 7 18 3 11 -4 13 -3 7 3
-19 19 -50 21 -64 5z"/>
<path d="M2745 1790 c-3 -5 -1 -10 4 -10 6 0 11 5 11 10 0 6 -2 10 -4 10 -3 0
-8 -4 -11 -10z"/>
<path d="M5290 1750 c0 -5 5 -10 11 -10 5 0 7 5 4 10 -3 6 -8 10 -11 10 -2 0
-4 -4 -4 -10z"/>
<path d="M5404 1731 c21 -23 26 -26 26 -11 0 5 -10 15 -22 21 -23 12 -23 12
-4 -10z"/>
<path d="M5430 1679 c0 -5 5 -7 10 -4 6 3 10 8 10 11 0 2 -4 4 -10 4 -5 0 -10
-5 -10 -11z"/>
<path d="M2735 1642 c-13 -9 -13 -73 0 -69 11 4 26 77 16 77 -3 0 -11 -4 -16
-8z"/>
<path d="M2605 1570 c-10 -32 11 -51 41 -38 13 6 24 15 24 20 0 5 -5 6 -10 3
-13 -8 -42 14 -34 26 3 5 1 9 -5 9 -5 0 -13 -9 -16 -20z m20 -10 c3 -5 1 -10
-4 -10 -6 0 -11 5 -11 10 0 6 2 10 4 10 3 0 8 -4 11 -10z"/>
<path d="M7630 1490 c8 -5 20 -10 25 -10 6 0 3 5 -5 10 -8 5 -19 10 -25 10 -5
0 -3 -5 5 -10z"/>
<path d="M7620 1300 c-9 -6 -10 -10 -3 -10 6 0 15 5 18 10 8 12 4 12 -15 0z"/>
<path d="M5550 1286 c0 -2 7 -7 16 -10 8 -3 12 -2 9 4 -6 10 -25 14 -25 6z"/>
<path d="M8359 1255 c-1 -14 -2 -32 -3 -40 0 -8 3 -16 8 -17 5 -2 10 8 11 22
1 14 5 33 10 43 5 12 3 17 -9 17 -10 0 -16 -9 -17 -25z"/>
<path d="M8391 1249 c-7 -12 -10 -23 -8 -26 3 -3 11 5 17 17 15 28 8 35 -9 9z"/>
<path d="M7836 1141 c-9 -14 44 -23 59 -11 10 8 14 7 18 -2 4 -8 6 -7 6 5 1
13 -7 17 -38 17 -22 0 -42 -4 -45 -9z"/>
<path d="M8178 1024 c-13 -13 -14 -22 -6 -40 6 -13 16 -24 22 -24 7 0 23 -8
36 -17 14 -10 33 -16 43 -15 9 2 17 -1 17 -6 0 -6 9 -8 20 -5 26 7 25 33 -1
67 -14 18 -28 26 -40 23 -11 -3 -17 -1 -13 4 3 5 -1 9 -8 10 -7 1 -2 5 12 9
21 7 17 8 -20 9 -30 1 -51 -5 -62 -15z"/>
<path d="M8537 1032 c-9 -16 15 -72 29 -72 23 0 14 72 -9 76 -9 1 -19 -1 -20
-4z"/>
</g>
</svg>
